%TF.GenerationSoftware,KiCad,Pcbnew,7.0.3*%
%TF.CreationDate,2023-07-06T16:10:13+02:00*%
%TF.ProjectId,Badge,42616467-652e-46b6-9963-61645f706362,rev?*%
%TF.SameCoordinates,Original*%
%TF.FileFunction,Soldermask,Top*%
%TF.FilePolarity,Negative*%
%FSLAX46Y46*%
G04 Gerber Fmt 4.6, Leading zero omitted, Abs format (unit mm)*
G04 Created by KiCad (PCBNEW 7.0.3) date 2023-07-06 16:10:13*
%MOMM*%
%LPD*%
G01*
G04 APERTURE LIST*
G04 Aperture macros list*
%AMRoundRect*
0 Rectangle with rounded corners*
0 $1 Rounding radius*
0 $2 $3 $4 $5 $6 $7 $8 $9 X,Y pos of 4 corners*
0 Add a 4 corners polygon primitive as box body*
4,1,4,$2,$3,$4,$5,$6,$7,$8,$9,$2,$3,0*
0 Add four circle primitives for the rounded corners*
1,1,$1+$1,$2,$3*
1,1,$1+$1,$4,$5*
1,1,$1+$1,$6,$7*
1,1,$1+$1,$8,$9*
0 Add four rect primitives between the rounded corners*
20,1,$1+$1,$2,$3,$4,$5,0*
20,1,$1+$1,$4,$5,$6,$7,0*
20,1,$1+$1,$6,$7,$8,$9,0*
20,1,$1+$1,$8,$9,$2,$3,0*%
%AMHorizOval*
0 Thick line with rounded ends*
0 $1 width*
0 $2 $3 position (X,Y) of the first rounded end (center of the circle)*
0 $4 $5 position (X,Y) of the second rounded end (center of the circle)*
0 Add line between two ends*
20,1,$1,$2,$3,$4,$5,0*
0 Add two circle primitives to create the rounded ends*
1,1,$1,$2,$3*
1,1,$1,$4,$5*%
%AMRotRect*
0 Rectangle, with rotation*
0 The origin of the aperture is its center*
0 $1 length*
0 $2 width*
0 $3 Rotation angle, in degrees counterclockwise*
0 Add horizontal line*
21,1,$1,$2,0,0,$3*%
%AMFreePoly0*
4,1,6,0.175000,0.019000,0.175000,-0.100000,-0.175000,-0.100000,-0.175000,0.100000,0.094000,0.100000,0.175000,0.019000,0.175000,0.019000,$1*%
%AMFreePoly1*
4,1,6,0.175000,-0.019000,0.094000,-0.100000,-0.175000,-0.100000,-0.175000,0.100000,0.175000,0.100000,0.175000,-0.019000,0.175000,-0.019000,$1*%
%AMFreePoly2*
4,1,6,0.100000,-0.175000,-0.100000,-0.175000,-0.100000,0.094000,-0.019000,0.175000,0.100000,0.175000,0.100000,-0.175000,0.100000,-0.175000,$1*%
%AMFreePoly3*
4,1,6,0.100000,0.094000,0.100000,-0.175000,-0.100000,-0.175000,-0.100000,0.175000,0.019000,0.175000,0.100000,0.094000,0.100000,0.094000,$1*%
%AMFreePoly4*
4,1,6,0.175000,-0.100000,-0.094000,-0.100000,-0.175000,-0.019000,-0.175000,0.100000,0.175000,0.100000,0.175000,-0.100000,0.175000,-0.100000,$1*%
%AMFreePoly5*
4,1,6,0.175000,-0.100000,-0.175000,-0.100000,-0.175000,0.019000,-0.094000,0.100000,0.175000,0.100000,0.175000,-0.100000,0.175000,-0.100000,$1*%
%AMFreePoly6*
4,1,6,0.100000,-0.094000,0.019000,-0.175000,-0.100000,-0.175000,-0.100000,0.175000,0.100000,0.175000,0.100000,-0.094000,0.100000,-0.094000,$1*%
%AMFreePoly7*
4,1,6,0.100000,-0.175000,-0.019000,-0.175000,-0.100000,-0.094000,-0.100000,0.175000,0.100000,0.175000,0.100000,-0.175000,0.100000,-0.175000,$1*%
G04 Aperture macros list end*
%ADD10R,0.650000X1.525000*%
%ADD11O,1.750000X1.200000*%
%ADD12RoundRect,0.250000X-0.625000X0.350000X-0.625000X-0.350000X0.625000X-0.350000X0.625000X0.350000X0*%
%ADD13RoundRect,0.140000X-0.140000X-0.170000X0.140000X-0.170000X0.140000X0.170000X-0.140000X0.170000X0*%
%ADD14RoundRect,0.140000X0.170000X-0.140000X0.170000X0.140000X-0.170000X0.140000X-0.170000X-0.140000X0*%
%ADD15RoundRect,0.135000X0.135000X0.185000X-0.135000X0.185000X-0.135000X-0.185000X0.135000X-0.185000X0*%
%ADD16RoundRect,0.218750X-0.256250X0.218750X-0.256250X-0.218750X0.256250X-0.218750X0.256250X0.218750X0*%
%ADD17RoundRect,0.140000X-0.170000X0.140000X-0.170000X-0.140000X0.170000X-0.140000X0.170000X0.140000X0*%
%ADD18RoundRect,0.135000X0.185000X-0.135000X0.185000X0.135000X-0.185000X0.135000X-0.185000X-0.135000X0*%
%ADD19RoundRect,0.140000X0.206244X0.077224X-0.036244X0.217224X-0.206244X-0.077224X0.036244X-0.217224X0*%
%ADD20RoundRect,0.140000X0.140000X0.170000X-0.140000X0.170000X-0.140000X-0.170000X0.140000X-0.170000X0*%
%ADD21C,0.600000*%
%ADD22RotRect,0.600000X1.160000X223.000000*%
%ADD23RotRect,0.300000X1.160000X43.000000*%
%ADD24HorizOval,0.900000X0.375099X-0.402245X-0.375099X0.402245X0*%
%ADD25HorizOval,0.900000X0.272799X-0.292541X-0.272799X0.292541X0*%
%ADD26RoundRect,0.140000X-0.217224X0.036244X-0.077224X-0.206244X0.217224X-0.036244X0.077224X0.206244X0*%
%ADD27RoundRect,0.050000X0.387500X0.050000X-0.387500X0.050000X-0.387500X-0.050000X0.387500X-0.050000X0*%
%ADD28RoundRect,0.050000X0.050000X0.387500X-0.050000X0.387500X-0.050000X-0.387500X0.050000X-0.387500X0*%
%ADD29R,3.200000X3.200000*%
%ADD30FreePoly0,0.000000*%
%ADD31R,0.350000X0.200000*%
%ADD32FreePoly1,0.000000*%
%ADD33FreePoly2,0.000000*%
%ADD34R,0.200000X0.350000*%
%ADD35FreePoly3,0.000000*%
%ADD36FreePoly4,0.000000*%
%ADD37FreePoly5,0.000000*%
%ADD38FreePoly6,0.000000*%
%ADD39FreePoly7,0.000000*%
%ADD40RoundRect,0.135000X-0.185000X0.135000X-0.185000X-0.135000X0.185000X-0.135000X0.185000X0.135000X0*%
%ADD41RoundRect,0.218750X-0.218750X-0.256250X0.218750X-0.256250X0.218750X0.256250X-0.218750X0.256250X0*%
%ADD42RoundRect,0.135000X-0.135000X-0.185000X0.135000X-0.185000X0.135000X0.185000X-0.135000X0.185000X0*%
%ADD43RoundRect,0.218750X0.256250X-0.218750X0.256250X0.218750X-0.256250X0.218750X-0.256250X-0.218750X0*%
%ADD44C,0.212500*%
%ADD45RoundRect,0.218750X0.218750X0.256250X-0.218750X0.256250X-0.218750X-0.256250X0.218750X-0.256250X0*%
%ADD46RoundRect,0.140000X-0.036244X-0.217224X0.206244X-0.077224X0.036244X0.217224X-0.206244X0.077224X0*%
%ADD47RoundRect,0.140000X-0.206244X-0.077224X0.036244X-0.217224X0.206244X0.077224X-0.036244X0.217224X0*%
%ADD48R,0.750000X1.000000*%
%ADD49RoundRect,0.140000X0.036244X0.217224X-0.206244X0.077224X-0.036244X-0.217224X0.206244X-0.077224X0*%
%ADD50HorizOval,0.900000X-0.136808X0.375877X0.136808X-0.375877X0*%
%ADD51HorizOval,0.900000X-0.188111X0.516831X0.188111X-0.516831X0*%
%ADD52RotRect,0.600000X1.160000X20.000000*%
%ADD53RotRect,0.300000X1.160000X200.000000*%
%ADD54RoundRect,0.250000X-0.300000X0.300000X-0.300000X-0.300000X0.300000X-0.300000X0.300000X0.300000X0*%
%ADD55C,1.000000*%
%ADD56R,1.000000X1.000000*%
%ADD57O,1.000000X1.000000*%
%ADD58R,1.400000X1.200000*%
%ADD59R,1.500000X0.900000*%
%ADD60R,0.900000X1.500000*%
%ADD61R,0.900000X0.900000*%
%ADD62C,0.900000*%
%ADD63RotRect,1.250000X2.500000X340.000000*%
%ADD64RoundRect,0.140000X0.077224X-0.206244X0.217224X0.036244X-0.077224X0.206244X-0.217224X-0.036244X0*%
%ADD65RoundRect,0.140000X0.217224X-0.036244X0.077224X0.206244X-0.217224X0.036244X-0.077224X-0.206244X0*%
%ADD66C,0.310000*%
%ADD67R,1.500000X2.000000*%
%ADD68R,3.800000X2.000000*%
%ADD69RoundRect,0.150000X-0.512500X-0.150000X0.512500X-0.150000X0.512500X0.150000X-0.512500X0.150000X0*%
%ADD70RoundRect,0.140000X-0.077224X0.206244X-0.217224X-0.036244X0.077224X-0.206244X0.217224X0.036244X0*%
%ADD71RoundRect,0.150000X0.650000X0.150000X-0.650000X0.150000X-0.650000X-0.150000X0.650000X-0.150000X0*%
%ADD72R,1.700000X1.700000*%
%ADD73O,1.700000X1.700000*%
%ADD74RoundRect,0.250000X-1.000000X-0.650000X1.000000X-0.650000X1.000000X0.650000X-1.000000X0.650000X0*%
%ADD75R,0.450000X0.700000*%
%ADD76R,1.727200X1.727200*%
%ADD77C,1.727200*%
%ADD78O,1.727200X1.727200*%
G04 APERTURE END LIST*
D10*
%TO.C,IC2*%
X72475000Y-114632000D03*
X73745000Y-114632000D03*
X75015000Y-114632000D03*
X76285000Y-114632000D03*
X76285000Y-109208000D03*
X75015000Y-109208000D03*
X73745000Y-109208000D03*
X72475000Y-109208000D03*
%TD*%
D11*
%TO.C,BT1*%
X89300000Y-135300000D03*
D12*
X89300000Y-133300000D03*
%TD*%
D13*
%TO.C,C16*%
X93380000Y-117990000D03*
X94340000Y-117990000D03*
%TD*%
%TO.C,C26*%
X99530000Y-106340000D03*
X100490000Y-106340000D03*
%TD*%
D14*
%TO.C,C48*%
X72400000Y-117480000D03*
X72400000Y-116520000D03*
%TD*%
D15*
%TO.C,R26*%
X87510000Y-71500000D03*
X86490000Y-71500000D03*
%TD*%
D16*
%TO.C,LED4*%
X115600000Y-56612500D03*
X115600000Y-58187500D03*
%TD*%
D13*
%TO.C,C22*%
X100190000Y-102780000D03*
X101150000Y-102780000D03*
%TD*%
D17*
%TO.C,C50*%
X76100000Y-116520000D03*
X76100000Y-117480000D03*
%TD*%
D15*
%TO.C,R20*%
X94330000Y-120050000D03*
X93310000Y-120050000D03*
%TD*%
D18*
%TO.C,R17*%
X93410000Y-124460000D03*
X93410000Y-123440000D03*
%TD*%
D19*
%TO.C,C38*%
X139415692Y-122740000D03*
X138584308Y-122260000D03*
%TD*%
D17*
%TO.C,C10*%
X94330000Y-121020000D03*
X94330000Y-121980000D03*
%TD*%
D20*
%TO.C,C39*%
X145480000Y-100000000D03*
X144520000Y-100000000D03*
%TD*%
D21*
%TO.C,P2*%
X70512510Y-68819488D03*
X66285285Y-72761438D03*
D22*
X71462148Y-69383303D03*
X70877065Y-69928902D03*
D23*
X70036008Y-70713200D03*
X69304654Y-71395198D03*
X68938977Y-71736197D03*
X68207624Y-72418196D03*
D22*
X67366567Y-73202494D03*
X66781484Y-73748093D03*
X66781484Y-73748093D03*
X67366567Y-73202494D03*
D23*
X67841947Y-72759195D03*
X68573301Y-72077197D03*
X69670331Y-71054199D03*
X70401685Y-70372201D03*
D22*
X70877065Y-69928902D03*
X71462148Y-69383303D03*
D24*
X71885705Y-68195280D03*
D25*
X69041772Y-65145535D03*
D24*
X65566809Y-74087746D03*
D25*
X62722876Y-71038001D03*
%TD*%
D26*
%TO.C,C30*%
X78150000Y-60074308D03*
X78630000Y-60905692D03*
%TD*%
D27*
%TO.C,U4*%
X103437500Y-117600000D03*
X103437500Y-117200000D03*
X103437500Y-116800000D03*
X103437500Y-116400000D03*
X103437500Y-116000000D03*
X103437500Y-115600000D03*
X103437500Y-115200000D03*
X103437500Y-114800000D03*
X103437500Y-114400000D03*
X103437500Y-114000000D03*
X103437500Y-113600000D03*
X103437500Y-113200000D03*
X103437500Y-112800000D03*
X103437500Y-112400000D03*
D28*
X102600000Y-111562500D03*
X102200000Y-111562500D03*
X101800000Y-111562500D03*
X101400000Y-111562500D03*
X101000000Y-111562500D03*
X100600000Y-111562500D03*
X100200000Y-111562500D03*
X99800000Y-111562500D03*
X99400000Y-111562500D03*
X99000000Y-111562500D03*
X98600000Y-111562500D03*
X98200000Y-111562500D03*
X97800000Y-111562500D03*
X97400000Y-111562500D03*
D27*
X96562500Y-112400000D03*
X96562500Y-112800000D03*
X96562500Y-113200000D03*
X96562500Y-113600000D03*
X96562500Y-114000000D03*
X96562500Y-114400000D03*
X96562500Y-114800000D03*
X96562500Y-115200000D03*
X96562500Y-115600000D03*
X96562500Y-116000000D03*
X96562500Y-116400000D03*
X96562500Y-116800000D03*
X96562500Y-117200000D03*
X96562500Y-117600000D03*
D28*
X97400000Y-118437500D03*
X97800000Y-118437500D03*
X98200000Y-118437500D03*
X98600000Y-118437500D03*
X99000000Y-118437500D03*
X99400000Y-118437500D03*
X99800000Y-118437500D03*
X100200000Y-118437500D03*
X100600000Y-118437500D03*
X101000000Y-118437500D03*
X101400000Y-118437500D03*
X101800000Y-118437500D03*
X102200000Y-118437500D03*
X102600000Y-118437500D03*
D29*
X100000000Y-115000000D03*
%TD*%
D13*
%TO.C,C33*%
X54520000Y-100000000D03*
X55480000Y-100000000D03*
%TD*%
D30*
%TO.C,U5*%
X98665000Y-99000000D03*
D31*
X98665000Y-99400000D03*
X98665000Y-99800000D03*
X98665000Y-100200000D03*
X98665000Y-100600000D03*
D32*
X98665000Y-101000000D03*
D33*
X99000000Y-101335000D03*
D34*
X99400000Y-101335000D03*
X99800000Y-101335000D03*
X100200000Y-101335000D03*
X100600000Y-101335000D03*
D35*
X101000000Y-101335000D03*
D36*
X101335000Y-101000000D03*
D31*
X101335000Y-100600000D03*
X101335000Y-100200000D03*
X101335000Y-99800000D03*
X101335000Y-99400000D03*
D37*
X101335000Y-99000000D03*
D38*
X101000000Y-98665000D03*
D34*
X100600000Y-98665000D03*
X100200000Y-98665000D03*
X99800000Y-98665000D03*
X99400000Y-98665000D03*
D39*
X99000000Y-98665000D03*
%TD*%
D40*
%TO.C,R6*%
X86600000Y-111390000D03*
X86600000Y-112410000D03*
%TD*%
%TO.C,R15*%
X90230000Y-127710000D03*
X90230000Y-128730000D03*
%TD*%
D41*
%TO.C,LED7*%
X93912500Y-137600000D03*
X95487500Y-137600000D03*
%TD*%
D42*
%TO.C,R9*%
X103990000Y-102100000D03*
X105010000Y-102100000D03*
%TD*%
D43*
%TO.C,LED8*%
X98100000Y-140287500D03*
X98100000Y-138712500D03*
%TD*%
D41*
%TO.C,LED2*%
X85712500Y-73000000D03*
X87287500Y-73000000D03*
%TD*%
D42*
%TO.C,R19*%
X93310000Y-119020000D03*
X94330000Y-119020000D03*
%TD*%
D40*
%TO.C,R32*%
X95200000Y-142590000D03*
X95200000Y-143610000D03*
%TD*%
D20*
%TO.C,C14*%
X108520000Y-113860000D03*
X107560000Y-113860000D03*
%TD*%
D13*
%TO.C,C42*%
X95500000Y-135410000D03*
X96460000Y-135410000D03*
%TD*%
D40*
%TO.C,R24*%
X100450000Y-95280000D03*
X100450000Y-96300000D03*
%TD*%
D44*
%TO.C,U6*%
X99399000Y-103899000D03*
X99965000Y-103899000D03*
X100531000Y-103899000D03*
X99682000Y-104182000D03*
X100248000Y-104182000D03*
X99399000Y-104465000D03*
X100531000Y-104465000D03*
X99682000Y-104748000D03*
X100248000Y-104748000D03*
X99399000Y-105031000D03*
X99965000Y-105031000D03*
X100531000Y-105031000D03*
%TD*%
D45*
%TO.C,LED3*%
X104037500Y-137980000D03*
X102462500Y-137980000D03*
%TD*%
D46*
%TO.C,C34*%
X60584308Y-122740000D03*
X61415692Y-122260000D03*
%TD*%
D47*
%TO.C,C32*%
X60584308Y-77260000D03*
X61415692Y-77740000D03*
%TD*%
D48*
%TO.C,SW2*%
X90395000Y-103320000D03*
X90395000Y-109320000D03*
X86645000Y-103320000D03*
X86645000Y-109320000D03*
%TD*%
D49*
%TO.C,C40*%
X139415692Y-77260000D03*
X138584308Y-77740000D03*
%TD*%
D20*
%TO.C,C19*%
X84480000Y-87440000D03*
X83520000Y-87440000D03*
%TD*%
%TO.C,C47*%
X107280000Y-136700000D03*
X106320000Y-136700000D03*
%TD*%
D50*
%TO.C,P4*%
X117526329Y-143105153D03*
D51*
X116100105Y-139186635D03*
D50*
X109407385Y-146060207D03*
D51*
X107981161Y-142141689D03*
D52*
X108835245Y-141213605D03*
X109586999Y-140939989D03*
D53*
X110197799Y-140717676D03*
X111137492Y-140375656D03*
X112547031Y-139862625D03*
X113486724Y-139520605D03*
D52*
X114097524Y-139298292D03*
X114849278Y-139024676D03*
X114849278Y-139024676D03*
X114097524Y-139298292D03*
D53*
X113016877Y-139691615D03*
X112077185Y-140033635D03*
X111607338Y-140204646D03*
X110667646Y-140546666D03*
D52*
X109586999Y-140939989D03*
X108835245Y-141213605D03*
D21*
X114920514Y-140126776D03*
X109489091Y-142103653D03*
%TD*%
D13*
%TO.C,C2*%
X102850000Y-129410000D03*
X103810000Y-129410000D03*
%TD*%
D14*
%TO.C,C15*%
X104680000Y-119930000D03*
X104680000Y-118970000D03*
%TD*%
D54*
%TO.C,D17*%
X70430000Y-109000000D03*
X70430000Y-111800000D03*
%TD*%
D15*
%TO.C,R22*%
X117710000Y-68300000D03*
X116690000Y-68300000D03*
%TD*%
D55*
%TO.C,TP4*%
X92630000Y-108150000D03*
%TD*%
D56*
%TO.C,J5*%
X100000000Y-92400000D03*
D57*
X101270000Y-92400000D03*
X100000000Y-91130000D03*
X101270000Y-91130000D03*
X100000000Y-89860000D03*
X101270000Y-89860000D03*
X100000000Y-88590000D03*
X101270000Y-88590000D03*
X100000000Y-87320000D03*
X101270000Y-87320000D03*
X100000000Y-86050000D03*
X101270000Y-86050000D03*
X100000000Y-84780000D03*
X101270000Y-84780000D03*
X100000000Y-83510000D03*
X101270000Y-83510000D03*
X100000000Y-82240000D03*
X101270000Y-82240000D03*
X100000000Y-80970000D03*
X101270000Y-80970000D03*
X100000000Y-79700000D03*
X101270000Y-79700000D03*
X100000000Y-78430000D03*
X101270000Y-78430000D03*
X100000000Y-77160000D03*
X101270000Y-77160000D03*
X100000000Y-75890000D03*
X101270000Y-75890000D03*
X100000000Y-74620000D03*
X101270000Y-74620000D03*
X100000000Y-73350000D03*
X101270000Y-73350000D03*
%TD*%
D14*
%TO.C,C17*%
X98810000Y-123840000D03*
X98810000Y-122880000D03*
%TD*%
D42*
%TO.C,R8*%
X92950000Y-106320000D03*
X93970000Y-106320000D03*
%TD*%
D26*
%TO.C,C31*%
X77260000Y-60584308D03*
X77740000Y-61415692D03*
%TD*%
D14*
%TO.C,C29*%
X88840000Y-53380000D03*
X88840000Y-52420000D03*
%TD*%
D13*
%TO.C,C49*%
X73720000Y-116400000D03*
X74680000Y-116400000D03*
%TD*%
D58*
%TO.C,Y1*%
X105090000Y-107020000D03*
X107290000Y-107020000D03*
X107290000Y-105320000D03*
X105090000Y-105320000D03*
%TD*%
D15*
%TO.C,R16*%
X103850000Y-130510000D03*
X102830000Y-130510000D03*
%TD*%
D42*
%TO.C,R14*%
X116690000Y-63100000D03*
X117710000Y-63100000D03*
%TD*%
D55*
%TO.C,TP2*%
X90960000Y-119760000D03*
%TD*%
%TO.C,TP1*%
X126490000Y-138470000D03*
%TD*%
D59*
%TO.C,U7*%
X91250000Y-51740000D03*
X91250000Y-53010000D03*
X91250000Y-54280000D03*
X91250000Y-55550000D03*
X91250000Y-56820000D03*
X91250000Y-58090000D03*
X91250000Y-59360000D03*
X91250000Y-60630000D03*
X91250000Y-61900000D03*
X91250000Y-63170000D03*
X91250000Y-64440000D03*
X91250000Y-65710000D03*
X91250000Y-66980000D03*
X91250000Y-68250000D03*
D60*
X93015000Y-69500000D03*
X94285000Y-69500000D03*
X95555000Y-69500000D03*
X96825000Y-69500000D03*
X98095000Y-69500000D03*
X99365000Y-69500000D03*
X100635000Y-69500000D03*
X101905000Y-69500000D03*
X103175000Y-69500000D03*
X104445000Y-69500000D03*
X105715000Y-69500000D03*
X106985000Y-69500000D03*
D59*
X108750000Y-68250000D03*
X108750000Y-66980000D03*
X108750000Y-65710000D03*
X108750000Y-64440000D03*
X108750000Y-63170000D03*
X108750000Y-61900000D03*
X108750000Y-60630000D03*
X108750000Y-59360000D03*
X108750000Y-58090000D03*
X108750000Y-56820000D03*
X108750000Y-55550000D03*
X108750000Y-54280000D03*
X108750000Y-53010000D03*
X108750000Y-51740000D03*
D61*
X97100000Y-58060000D03*
X97100000Y-59460000D03*
X97100000Y-60860000D03*
X98500000Y-58060000D03*
X98500000Y-59460000D03*
X98500000Y-60860000D03*
X99900000Y-58060000D03*
X99900000Y-59460000D03*
X99900000Y-60860000D03*
%TD*%
D62*
%TO.C,SW9*%
X84105045Y-142437132D03*
X90494955Y-144762868D03*
D63*
X90589787Y-141870896D03*
X88240555Y-141015845D03*
X85891324Y-140160795D03*
%TD*%
D17*
%TO.C,C13*%
X99370000Y-107350000D03*
X99370000Y-108310000D03*
%TD*%
D42*
%TO.C,R25*%
X87830000Y-54370000D03*
X88850000Y-54370000D03*
%TD*%
D17*
%TO.C,C24*%
X97020000Y-104370000D03*
X97020000Y-105330000D03*
%TD*%
D40*
%TO.C,R33*%
X99400000Y-138490000D03*
X99400000Y-139510000D03*
%TD*%
D20*
%TO.C,C51*%
X72280000Y-107640000D03*
X71320000Y-107640000D03*
%TD*%
D40*
%TO.C,R11*%
X101860000Y-135310000D03*
X101860000Y-136330000D03*
%TD*%
D20*
%TO.C,C6*%
X99800000Y-124820000D03*
X98840000Y-124820000D03*
%TD*%
D64*
%TO.C,C35*%
X77260000Y-139415692D03*
X77740000Y-138584308D03*
%TD*%
D14*
%TO.C,C18*%
X99860000Y-123830000D03*
X99860000Y-122870000D03*
%TD*%
D65*
%TO.C,C37*%
X122740000Y-139415692D03*
X122260000Y-138584308D03*
%TD*%
D66*
%TO.C,A1*%
X76933733Y-124266519D03*
X77828195Y-119056385D03*
%TD*%
D13*
%TO.C,C12*%
X91490000Y-113690000D03*
X92450000Y-113690000D03*
%TD*%
D14*
%TO.C,C36*%
X100000000Y-145480000D03*
X100000000Y-144520000D03*
%TD*%
%TO.C,C28*%
X87840000Y-53380000D03*
X87840000Y-52420000D03*
%TD*%
D67*
%TO.C,U3*%
X94900000Y-133520000D03*
X97200000Y-133520000D03*
D68*
X97200000Y-127220000D03*
D67*
X99500000Y-133520000D03*
%TD*%
D20*
%TO.C,C21*%
X105000000Y-101000000D03*
X104040000Y-101000000D03*
%TD*%
D18*
%TO.C,R3*%
X113190000Y-128440000D03*
X113190000Y-127420000D03*
%TD*%
D14*
%TO.C,C8*%
X98340000Y-108310000D03*
X98340000Y-107350000D03*
%TD*%
D13*
%TO.C,C5*%
X99410000Y-135400000D03*
X100370000Y-135400000D03*
%TD*%
D14*
%TO.C,C9*%
X101210000Y-122890000D03*
X101210000Y-121930000D03*
%TD*%
D56*
%TO.C,J6*%
X97165000Y-93540000D03*
D57*
X95895000Y-93540000D03*
X94625000Y-93540000D03*
%TD*%
D20*
%TO.C,C7*%
X96300000Y-122150000D03*
X95340000Y-122150000D03*
%TD*%
D69*
%TO.C,U9*%
X94062500Y-139150000D03*
X94062500Y-140100000D03*
X94062500Y-141050000D03*
X96337500Y-141050000D03*
X96337500Y-140100000D03*
X96337500Y-139150000D03*
%TD*%
D20*
%TO.C,C52*%
X85480000Y-137400000D03*
X84520000Y-137400000D03*
%TD*%
D70*
%TO.C,C41*%
X122740000Y-60584308D03*
X122260000Y-61415692D03*
%TD*%
D17*
%TO.C,C23*%
X95990000Y-104380000D03*
X95990000Y-105340000D03*
%TD*%
%TO.C,C4*%
X103520000Y-106460000D03*
X103520000Y-107420000D03*
%TD*%
D40*
%TO.C,R2*%
X91910000Y-104310000D03*
X91910000Y-105330000D03*
%TD*%
%TO.C,R13*%
X120070000Y-129840000D03*
X120070000Y-130860000D03*
%TD*%
D71*
%TO.C,U1*%
X110670000Y-127905000D03*
X110670000Y-126635000D03*
X110670000Y-125365000D03*
X110670000Y-124095000D03*
X103470000Y-124095000D03*
X103470000Y-125365000D03*
X103470000Y-126635000D03*
X103470000Y-127905000D03*
%TD*%
D42*
%TO.C,R12*%
X92930000Y-105250000D03*
X93950000Y-105250000D03*
%TD*%
D18*
%TO.C,R1*%
X114280000Y-128440000D03*
X114280000Y-127420000D03*
%TD*%
%TO.C,R23*%
X97010000Y-103430000D03*
X97010000Y-102410000D03*
%TD*%
D55*
%TO.C,TP3*%
X95920000Y-107290000D03*
%TD*%
D20*
%TO.C,C11*%
X96310000Y-121070000D03*
X95350000Y-121070000D03*
%TD*%
D48*
%TO.C,SW1*%
X118125000Y-118460000D03*
X118125000Y-124460000D03*
X114375000Y-118460000D03*
X114375000Y-124460000D03*
%TD*%
D14*
%TO.C,C43*%
X93040000Y-127830000D03*
X93040000Y-126870000D03*
%TD*%
D17*
%TO.C,C25*%
X95990000Y-102460000D03*
X95990000Y-103420000D03*
%TD*%
D48*
%TO.C,SW7*%
X83925000Y-69700000D03*
X83925000Y-63700000D03*
X87675000Y-69700000D03*
X87675000Y-63700000D03*
%TD*%
D42*
%TO.C,R21*%
X116690000Y-62000000D03*
X117710000Y-62000000D03*
%TD*%
D40*
%TO.C,R27*%
X114200000Y-57390000D03*
X114200000Y-58410000D03*
%TD*%
D15*
%TO.C,R7*%
X105090000Y-108430000D03*
X104070000Y-108430000D03*
%TD*%
D20*
%TO.C,C20*%
X116120000Y-111290000D03*
X115160000Y-111290000D03*
%TD*%
D72*
%TO.C,J4*%
X129340000Y-120560000D03*
D73*
X131880000Y-120560000D03*
X129340000Y-118020000D03*
X131880000Y-118020000D03*
X129340000Y-115480000D03*
X131880000Y-115480000D03*
X129340000Y-112940000D03*
X131880000Y-112940000D03*
X129340000Y-110400000D03*
X131880000Y-110400000D03*
X129340000Y-107860000D03*
X131880000Y-107860000D03*
X129340000Y-105320000D03*
X131880000Y-105320000D03*
X129340000Y-102780000D03*
X131880000Y-102780000D03*
X129340000Y-100240000D03*
X131880000Y-100240000D03*
X129340000Y-97700000D03*
X131880000Y-97700000D03*
X129340000Y-95160000D03*
X131880000Y-95160000D03*
X129340000Y-92620000D03*
X131880000Y-92620000D03*
X129340000Y-90080000D03*
X131880000Y-90080000D03*
%TD*%
D40*
%TO.C,R18*%
X91820000Y-123300000D03*
X91820000Y-124320000D03*
%TD*%
D74*
%TO.C,D19*%
X108300000Y-134300000D03*
X112300000Y-134300000D03*
%TD*%
D14*
%TO.C,C3*%
X108870000Y-105860000D03*
X108870000Y-104900000D03*
%TD*%
D48*
%TO.C,SW4*%
X108425000Y-80700000D03*
X108425000Y-74700000D03*
X112175000Y-80700000D03*
X112175000Y-74700000D03*
%TD*%
D75*
%TO.C,Q2*%
X89000000Y-128000000D03*
X87700000Y-128000000D03*
X88350000Y-130000000D03*
%TD*%
D18*
%TO.C,R10*%
X84400000Y-132660000D03*
X84400000Y-131640000D03*
%TD*%
D13*
%TO.C,C27*%
X87870000Y-55400000D03*
X88830000Y-55400000D03*
%TD*%
D76*
%TO.C,X1*%
X76530000Y-77960000D03*
D77*
X76530000Y-80500000D03*
D78*
X73990000Y-77960000D03*
X73990000Y-80500000D03*
D77*
X71450000Y-77960000D03*
X71450000Y-80500000D03*
%TD*%
M02*
