%TF.GenerationSoftware,KiCad,Pcbnew,7.0.3*%
%TF.CreationDate,2023-07-06T16:10:13+02:00*%
%TF.ProjectId,Badge,42616467-652e-46b6-9963-61645f706362,rev?*%
%TF.SameCoordinates,Original*%
%TF.FileFunction,Soldermask,Bot*%
%TF.FilePolarity,Negative*%
%FSLAX46Y46*%
G04 Gerber Fmt 4.6, Leading zero omitted, Abs format (unit mm)*
G04 Created by KiCad (PCBNEW 7.0.3) date 2023-07-06 16:10:13*
%MOMM*%
%LPD*%
G01*
G04 APERTURE LIST*
G04 Aperture macros list*
%AMRoundRect*
0 Rectangle with rounded corners*
0 $1 Rounding radius*
0 $2 $3 $4 $5 $6 $7 $8 $9 X,Y pos of 4 corners*
0 Add a 4 corners polygon primitive as box body*
4,1,4,$2,$3,$4,$5,$6,$7,$8,$9,$2,$3,0*
0 Add four circle primitives for the rounded corners*
1,1,$1+$1,$2,$3*
1,1,$1+$1,$4,$5*
1,1,$1+$1,$6,$7*
1,1,$1+$1,$8,$9*
0 Add four rect primitives between the rounded corners*
20,1,$1+$1,$2,$3,$4,$5,0*
20,1,$1+$1,$4,$5,$6,$7,0*
20,1,$1+$1,$6,$7,$8,$9,0*
20,1,$1+$1,$8,$9,$2,$3,0*%
%AMHorizOval*
0 Thick line with rounded ends*
0 $1 width*
0 $2 $3 position (X,Y) of the first rounded end (center of the circle)*
0 $4 $5 position (X,Y) of the second rounded end (center of the circle)*
0 Add line between two ends*
20,1,$1,$2,$3,$4,$5,0*
0 Add two circle primitives to create the rounded ends*
1,1,$1,$2,$3*
1,1,$1,$4,$5*%
%AMRotRect*
0 Rectangle, with rotation*
0 The origin of the aperture is its center*
0 $1 length*
0 $2 width*
0 $3 Rotation angle, in degrees counterclockwise*
0 Add horizontal line*
21,1,$1,$2,0,0,$3*%
G04 Aperture macros list end*
%ADD10O,1.750000X1.200000*%
%ADD11RoundRect,0.250000X-0.625000X0.350000X-0.625000X-0.350000X0.625000X-0.350000X0.625000X0.350000X0*%
%ADD12C,0.600000*%
%ADD13HorizOval,0.900000X0.375099X-0.402245X-0.375099X0.402245X0*%
%ADD14HorizOval,0.900000X0.272799X-0.292541X-0.272799X0.292541X0*%
%ADD15HorizOval,0.900000X-0.136808X0.375877X0.136808X-0.375877X0*%
%ADD16HorizOval,0.900000X-0.188111X0.516831X0.188111X-0.516831X0*%
%ADD17R,1.000000X1.000000*%
%ADD18O,1.000000X1.000000*%
%ADD19C,0.900000*%
%ADD20C,0.310000*%
%ADD21R,1.700000X1.700000*%
%ADD22O,1.700000X1.700000*%
%ADD23RotRect,1.500000X0.900000X30.000000*%
%ADD24RotRect,1.500000X0.900000X300.000000*%
%ADD25RotRect,1.500000X0.900000X240.000000*%
%ADD26RotRect,1.500000X0.900000X330.000000*%
%ADD27RotRect,1.500000X0.900000X120.000000*%
%ADD28R,2.200000X2.200000*%
%ADD29R,0.900000X1.500000*%
%ADD30R,1.500000X0.900000*%
%ADD31RotRect,1.500000X0.900000X150.000000*%
%ADD32R,1.000000X0.750000*%
%ADD33RotRect,1.500000X0.900000X210.000000*%
%ADD34R,1.727200X1.727200*%
%ADD35C,1.727200*%
%ADD36O,1.727200X1.727200*%
%ADD37RotRect,1.500000X0.900000X60.000000*%
G04 APERTURE END LIST*
D10*
%TO.C,BT1*%
X89300000Y-135300000D03*
D11*
X89300000Y-133300000D03*
%TD*%
D12*
%TO.C,P2*%
X70512510Y-68819488D03*
X66285285Y-72761438D03*
D13*
X71885705Y-68195280D03*
D14*
X69041772Y-65145535D03*
D13*
X65566809Y-74087746D03*
D14*
X62722876Y-71038001D03*
%TD*%
D15*
%TO.C,P4*%
X117526329Y-143105153D03*
D16*
X116100105Y-139186635D03*
D15*
X109407385Y-146060207D03*
D16*
X107981161Y-142141689D03*
D12*
X114920514Y-140126776D03*
X109489091Y-142103653D03*
%TD*%
D17*
%TO.C,J5*%
X100000000Y-92400000D03*
D18*
X101270000Y-92400000D03*
X100000000Y-91130000D03*
X101270000Y-91130000D03*
X100000000Y-89860000D03*
X101270000Y-89860000D03*
X100000000Y-88590000D03*
X101270000Y-88590000D03*
X100000000Y-87320000D03*
X101270000Y-87320000D03*
X100000000Y-86050000D03*
X101270000Y-86050000D03*
X100000000Y-84780000D03*
X101270000Y-84780000D03*
X100000000Y-83510000D03*
X101270000Y-83510000D03*
X100000000Y-82240000D03*
X101270000Y-82240000D03*
X100000000Y-80970000D03*
X101270000Y-80970000D03*
X100000000Y-79700000D03*
X101270000Y-79700000D03*
X100000000Y-78430000D03*
X101270000Y-78430000D03*
X100000000Y-77160000D03*
X101270000Y-77160000D03*
X100000000Y-75890000D03*
X101270000Y-75890000D03*
X100000000Y-74620000D03*
X101270000Y-74620000D03*
X100000000Y-73350000D03*
X101270000Y-73350000D03*
%TD*%
D19*
%TO.C,SW9*%
X84105045Y-142437132D03*
X90494955Y-144762868D03*
%TD*%
D20*
%TO.C,A1*%
X76933733Y-124266519D03*
X77828195Y-119056385D03*
%TD*%
D17*
%TO.C,J6*%
X97165000Y-93540000D03*
D18*
X95895000Y-93540000D03*
X94625000Y-93540000D03*
%TD*%
D21*
%TO.C,J4*%
X129340000Y-120560000D03*
D22*
X131880000Y-120560000D03*
X129340000Y-118020000D03*
X131880000Y-118020000D03*
X129340000Y-115480000D03*
X131880000Y-115480000D03*
X129340000Y-112940000D03*
X131880000Y-112940000D03*
X129340000Y-110400000D03*
X131880000Y-110400000D03*
X129340000Y-107860000D03*
X131880000Y-107860000D03*
X129340000Y-105320000D03*
X131880000Y-105320000D03*
X129340000Y-102780000D03*
X131880000Y-102780000D03*
X129340000Y-100240000D03*
X131880000Y-100240000D03*
X129340000Y-97700000D03*
X131880000Y-97700000D03*
X129340000Y-95160000D03*
X131880000Y-95160000D03*
X129340000Y-92620000D03*
X131880000Y-92620000D03*
X129340000Y-90080000D03*
X131880000Y-90080000D03*
%TD*%
D23*
%TO.C,D5*%
X59703238Y-125153942D03*
X58053238Y-122296058D03*
X62296762Y-119846058D03*
X63946762Y-122703942D03*
%TD*%
D24*
%TO.C,D2*%
X74846058Y-59703238D03*
X77703942Y-58053238D03*
X80153942Y-62296762D03*
X77296058Y-63946762D03*
%TD*%
D25*
%TO.C,D12*%
X122296058Y-58053238D03*
X125153942Y-59703238D03*
X122703942Y-63946762D03*
X119846058Y-62296762D03*
%TD*%
D26*
%TO.C,D3*%
X58053238Y-77703942D03*
X59703238Y-74846058D03*
X63946762Y-77296058D03*
X62296762Y-80153942D03*
%TD*%
D27*
%TO.C,D8*%
X125153942Y-140296762D03*
X122296058Y-141946762D03*
X119846058Y-137703238D03*
X122703942Y-136053238D03*
%TD*%
D28*
%TO.C,BZ1*%
X106600000Y-130000000D03*
X93400000Y-130000000D03*
%TD*%
D29*
%TO.C,D1*%
X98350000Y-52550000D03*
X101650000Y-52550000D03*
X101650000Y-57450000D03*
X98350000Y-57450000D03*
%TD*%
D30*
%TO.C,D13*%
X118090000Y-109780000D03*
X118090000Y-113080000D03*
X113190000Y-113080000D03*
X113190000Y-109780000D03*
%TD*%
D31*
%TO.C,D9*%
X141946762Y-122296058D03*
X140296762Y-125153942D03*
X136053238Y-122703942D03*
X137703238Y-119846058D03*
%TD*%
D32*
%TO.C,SW6*%
X123000000Y-128125000D03*
X117000000Y-128125000D03*
X123000000Y-131875000D03*
X117000000Y-131875000D03*
%TD*%
D30*
%TO.C,D4*%
X52550000Y-101650000D03*
X52550000Y-98350000D03*
X57450000Y-98350000D03*
X57450000Y-101650000D03*
%TD*%
D32*
%TO.C,SW5*%
X83000000Y-128125000D03*
X77000000Y-128125000D03*
X83000000Y-131875000D03*
X77000000Y-131875000D03*
%TD*%
D29*
%TO.C,D7*%
X101650000Y-147450000D03*
X98350000Y-147450000D03*
X98350000Y-142550000D03*
X101650000Y-142550000D03*
%TD*%
D33*
%TO.C,D11*%
X140296762Y-74846058D03*
X141946762Y-77703942D03*
X137703238Y-80153942D03*
X136053238Y-77296058D03*
%TD*%
D34*
%TO.C,X1*%
X76530000Y-77960000D03*
D35*
X76530000Y-80500000D03*
D36*
X73990000Y-77960000D03*
X73990000Y-80500000D03*
D35*
X71450000Y-77960000D03*
X71450000Y-80500000D03*
%TD*%
D30*
%TO.C,D10*%
X147450000Y-98350000D03*
X147450000Y-101650000D03*
X142550000Y-101650000D03*
X142550000Y-98350000D03*
%TD*%
D37*
%TO.C,D6*%
X77703942Y-141946762D03*
X74846058Y-140296762D03*
X77296058Y-136053238D03*
X80153942Y-137703238D03*
%TD*%
D30*
%TO.C,D14*%
X85620000Y-85960000D03*
X85620000Y-89260000D03*
X80720000Y-89260000D03*
X80720000Y-85960000D03*
%TD*%
M02*
