%TF.GenerationSoftware,KiCad,Pcbnew,7.0.3*%
%TF.CreationDate,2023-07-10T12:40:13+02:00*%
%TF.ProjectId,Badge,42616467-652e-46b6-9963-61645f706362,rev?*%
%TF.SameCoordinates,Original*%
%TF.FileFunction,Legend,Bot*%
%TF.FilePolarity,Positive*%
%FSLAX46Y46*%
G04 Gerber Fmt 4.6, Leading zero omitted, Abs format (unit mm)*
G04 Created by KiCad (PCBNEW 7.0.3) date 2023-07-10 12:40:13*
%MOMM*%
%LPD*%
G01*
G04 APERTURE LIST*
G04 Aperture macros list*
%AMRoundRect*
0 Rectangle with rounded corners*
0 $1 Rounding radius*
0 $2 $3 $4 $5 $6 $7 $8 $9 X,Y pos of 4 corners*
0 Add a 4 corners polygon primitive as box body*
4,1,4,$2,$3,$4,$5,$6,$7,$8,$9,$2,$3,0*
0 Add four circle primitives for the rounded corners*
1,1,$1+$1,$2,$3*
1,1,$1+$1,$4,$5*
1,1,$1+$1,$6,$7*
1,1,$1+$1,$8,$9*
0 Add four rect primitives between the rounded corners*
20,1,$1+$1,$2,$3,$4,$5,0*
20,1,$1+$1,$4,$5,$6,$7,0*
20,1,$1+$1,$6,$7,$8,$9,0*
20,1,$1+$1,$8,$9,$2,$3,0*%
%AMHorizOval*
0 Thick line with rounded ends*
0 $1 width*
0 $2 $3 position (X,Y) of the first rounded end (center of the circle)*
0 $4 $5 position (X,Y) of the second rounded end (center of the circle)*
0 Add line between two ends*
20,1,$1,$2,$3,$4,$5,0*
0 Add two circle primitives to create the rounded ends*
1,1,$1,$2,$3*
1,1,$1,$4,$5*%
%AMRotRect*
0 Rectangle, with rotation*
0 The origin of the aperture is its center*
0 $1 length*
0 $2 width*
0 $3 Rotation angle, in degrees counterclockwise*
0 Add horizontal line*
21,1,$1,$2,0,0,$3*%
G04 Aperture macros list end*
%ADD10C,0.150000*%
%ADD11C,0.120000*%
%ADD12C,0.200000*%
%ADD13C,0.500000*%
%ADD14C,0.100000*%
%ADD15C,0.600000*%
%ADD16HorizOval,0.900000X0.375099X-0.402245X-0.375099X0.402245X0*%
%ADD17HorizOval,0.900000X0.272799X-0.292541X-0.272799X0.292541X0*%
%ADD18O,1.750000X1.200000*%
%ADD19RoundRect,0.250000X-0.625000X0.350000X-0.625000X-0.350000X0.625000X-0.350000X0.625000X0.350000X0*%
%ADD20R,1.000000X1.000000*%
%ADD21O,1.000000X1.000000*%
%ADD22C,0.900000*%
%ADD23C,0.310000*%
%ADD24HorizOval,0.900000X-0.188111X0.516831X0.188111X-0.516831X0*%
%ADD25HorizOval,0.900000X-0.136808X0.375877X0.136808X-0.375877X0*%
%ADD26R,1.700000X1.700000*%
%ADD27O,1.700000X1.700000*%
%ADD28RotRect,1.500000X0.900000X30.000000*%
%ADD29RotRect,1.500000X0.900000X300.000000*%
%ADD30RotRect,1.500000X0.900000X240.000000*%
%ADD31RotRect,1.500000X0.900000X330.000000*%
%ADD32RotRect,1.500000X0.900000X120.000000*%
%ADD33R,2.200000X2.200000*%
%ADD34R,0.900000X1.500000*%
%ADD35R,1.500000X0.900000*%
%ADD36RotRect,1.500000X0.900000X150.000000*%
%ADD37R,1.000000X0.750000*%
%ADD38RotRect,1.500000X0.900000X210.000000*%
%ADD39R,1.727200X1.727200*%
%ADD40C,1.727200*%
%ADD41O,1.727200X1.727200*%
%ADD42RotRect,1.500000X0.900000X60.000000*%
G04 APERTURE END LIST*
D10*
%TO.C,D5*%
X66409410Y-120244819D02*
X66409410Y-119244819D01*
X66409410Y-119244819D02*
X66171315Y-119244819D01*
X66171315Y-119244819D02*
X66028458Y-119292438D01*
X66028458Y-119292438D02*
X65933220Y-119387676D01*
X65933220Y-119387676D02*
X65885601Y-119482914D01*
X65885601Y-119482914D02*
X65837982Y-119673390D01*
X65837982Y-119673390D02*
X65837982Y-119816247D01*
X65837982Y-119816247D02*
X65885601Y-120006723D01*
X65885601Y-120006723D02*
X65933220Y-120101961D01*
X65933220Y-120101961D02*
X66028458Y-120197200D01*
X66028458Y-120197200D02*
X66171315Y-120244819D01*
X66171315Y-120244819D02*
X66409410Y-120244819D01*
X64933220Y-119244819D02*
X65409410Y-119244819D01*
X65409410Y-119244819D02*
X65457029Y-119721009D01*
X65457029Y-119721009D02*
X65409410Y-119673390D01*
X65409410Y-119673390D02*
X65314172Y-119625771D01*
X65314172Y-119625771D02*
X65076077Y-119625771D01*
X65076077Y-119625771D02*
X64980839Y-119673390D01*
X64980839Y-119673390D02*
X64933220Y-119721009D01*
X64933220Y-119721009D02*
X64885601Y-119816247D01*
X64885601Y-119816247D02*
X64885601Y-120054342D01*
X64885601Y-120054342D02*
X64933220Y-120149580D01*
X64933220Y-120149580D02*
X64980839Y-120197200D01*
X64980839Y-120197200D02*
X65076077Y-120244819D01*
X65076077Y-120244819D02*
X65314172Y-120244819D01*
X65314172Y-120244819D02*
X65409410Y-120197200D01*
X65409410Y-120197200D02*
X65457029Y-120149580D01*
%TO.C,D2*%
X80639410Y-65914818D02*
X80639410Y-64914818D01*
X80639410Y-64914818D02*
X80401315Y-64914818D01*
X80401315Y-64914818D02*
X80258458Y-64962437D01*
X80258458Y-64962437D02*
X80163220Y-65057675D01*
X80163220Y-65057675D02*
X80115601Y-65152913D01*
X80115601Y-65152913D02*
X80067982Y-65343389D01*
X80067982Y-65343389D02*
X80067982Y-65486246D01*
X80067982Y-65486246D02*
X80115601Y-65676722D01*
X80115601Y-65676722D02*
X80163220Y-65771960D01*
X80163220Y-65771960D02*
X80258458Y-65867199D01*
X80258458Y-65867199D02*
X80401315Y-65914818D01*
X80401315Y-65914818D02*
X80639410Y-65914818D01*
X79687029Y-65010056D02*
X79639410Y-64962437D01*
X79639410Y-64962437D02*
X79544172Y-64914818D01*
X79544172Y-64914818D02*
X79306077Y-64914818D01*
X79306077Y-64914818D02*
X79210839Y-64962437D01*
X79210839Y-64962437D02*
X79163220Y-65010056D01*
X79163220Y-65010056D02*
X79115601Y-65105294D01*
X79115601Y-65105294D02*
X79115601Y-65200532D01*
X79115601Y-65200532D02*
X79163220Y-65343389D01*
X79163220Y-65343389D02*
X79734648Y-65914818D01*
X79734648Y-65914818D02*
X79115601Y-65914818D01*
%TO.C,D12*%
X120895601Y-65994819D02*
X120895601Y-64994819D01*
X120895601Y-64994819D02*
X120657506Y-64994819D01*
X120657506Y-64994819D02*
X120514649Y-65042438D01*
X120514649Y-65042438D02*
X120419411Y-65137676D01*
X120419411Y-65137676D02*
X120371792Y-65232914D01*
X120371792Y-65232914D02*
X120324173Y-65423390D01*
X120324173Y-65423390D02*
X120324173Y-65566247D01*
X120324173Y-65566247D02*
X120371792Y-65756723D01*
X120371792Y-65756723D02*
X120419411Y-65851961D01*
X120419411Y-65851961D02*
X120514649Y-65947200D01*
X120514649Y-65947200D02*
X120657506Y-65994819D01*
X120657506Y-65994819D02*
X120895601Y-65994819D01*
X119371792Y-65994819D02*
X119943220Y-65994819D01*
X119657506Y-65994819D02*
X119657506Y-64994819D01*
X119657506Y-64994819D02*
X119752744Y-65137676D01*
X119752744Y-65137676D02*
X119847982Y-65232914D01*
X119847982Y-65232914D02*
X119943220Y-65280533D01*
X118990839Y-65090057D02*
X118943220Y-65042438D01*
X118943220Y-65042438D02*
X118847982Y-64994819D01*
X118847982Y-64994819D02*
X118609887Y-64994819D01*
X118609887Y-64994819D02*
X118514649Y-65042438D01*
X118514649Y-65042438D02*
X118467030Y-65090057D01*
X118467030Y-65090057D02*
X118419411Y-65185295D01*
X118419411Y-65185295D02*
X118419411Y-65280533D01*
X118419411Y-65280533D02*
X118467030Y-65423390D01*
X118467030Y-65423390D02*
X119038458Y-65994819D01*
X119038458Y-65994819D02*
X118419411Y-65994819D01*
%TO.C,D3*%
X66299410Y-80824819D02*
X66299410Y-79824819D01*
X66299410Y-79824819D02*
X66061315Y-79824819D01*
X66061315Y-79824819D02*
X65918458Y-79872438D01*
X65918458Y-79872438D02*
X65823220Y-79967676D01*
X65823220Y-79967676D02*
X65775601Y-80062914D01*
X65775601Y-80062914D02*
X65727982Y-80253390D01*
X65727982Y-80253390D02*
X65727982Y-80396247D01*
X65727982Y-80396247D02*
X65775601Y-80586723D01*
X65775601Y-80586723D02*
X65823220Y-80681961D01*
X65823220Y-80681961D02*
X65918458Y-80777200D01*
X65918458Y-80777200D02*
X66061315Y-80824819D01*
X66061315Y-80824819D02*
X66299410Y-80824819D01*
X65394648Y-79824819D02*
X64775601Y-79824819D01*
X64775601Y-79824819D02*
X65108934Y-80205771D01*
X65108934Y-80205771D02*
X64966077Y-80205771D01*
X64966077Y-80205771D02*
X64870839Y-80253390D01*
X64870839Y-80253390D02*
X64823220Y-80301009D01*
X64823220Y-80301009D02*
X64775601Y-80396247D01*
X64775601Y-80396247D02*
X64775601Y-80634342D01*
X64775601Y-80634342D02*
X64823220Y-80729580D01*
X64823220Y-80729580D02*
X64870839Y-80777200D01*
X64870839Y-80777200D02*
X64966077Y-80824819D01*
X64966077Y-80824819D02*
X65251791Y-80824819D01*
X65251791Y-80824819D02*
X65347029Y-80777200D01*
X65347029Y-80777200D02*
X65394648Y-80729580D01*
%TO.C,D8*%
X120899410Y-135394819D02*
X120899410Y-134394819D01*
X120899410Y-134394819D02*
X120661315Y-134394819D01*
X120661315Y-134394819D02*
X120518458Y-134442438D01*
X120518458Y-134442438D02*
X120423220Y-134537676D01*
X120423220Y-134537676D02*
X120375601Y-134632914D01*
X120375601Y-134632914D02*
X120327982Y-134823390D01*
X120327982Y-134823390D02*
X120327982Y-134966247D01*
X120327982Y-134966247D02*
X120375601Y-135156723D01*
X120375601Y-135156723D02*
X120423220Y-135251961D01*
X120423220Y-135251961D02*
X120518458Y-135347200D01*
X120518458Y-135347200D02*
X120661315Y-135394819D01*
X120661315Y-135394819D02*
X120899410Y-135394819D01*
X119756553Y-134823390D02*
X119851791Y-134775771D01*
X119851791Y-134775771D02*
X119899410Y-134728152D01*
X119899410Y-134728152D02*
X119947029Y-134632914D01*
X119947029Y-134632914D02*
X119947029Y-134585295D01*
X119947029Y-134585295D02*
X119899410Y-134490057D01*
X119899410Y-134490057D02*
X119851791Y-134442438D01*
X119851791Y-134442438D02*
X119756553Y-134394819D01*
X119756553Y-134394819D02*
X119566077Y-134394819D01*
X119566077Y-134394819D02*
X119470839Y-134442438D01*
X119470839Y-134442438D02*
X119423220Y-134490057D01*
X119423220Y-134490057D02*
X119375601Y-134585295D01*
X119375601Y-134585295D02*
X119375601Y-134632914D01*
X119375601Y-134632914D02*
X119423220Y-134728152D01*
X119423220Y-134728152D02*
X119470839Y-134775771D01*
X119470839Y-134775771D02*
X119566077Y-134823390D01*
X119566077Y-134823390D02*
X119756553Y-134823390D01*
X119756553Y-134823390D02*
X119851791Y-134871009D01*
X119851791Y-134871009D02*
X119899410Y-134918628D01*
X119899410Y-134918628D02*
X119947029Y-135013866D01*
X119947029Y-135013866D02*
X119947029Y-135204342D01*
X119947029Y-135204342D02*
X119899410Y-135299580D01*
X119899410Y-135299580D02*
X119851791Y-135347200D01*
X119851791Y-135347200D02*
X119756553Y-135394819D01*
X119756553Y-135394819D02*
X119566077Y-135394819D01*
X119566077Y-135394819D02*
X119470839Y-135347200D01*
X119470839Y-135347200D02*
X119423220Y-135299580D01*
X119423220Y-135299580D02*
X119375601Y-135204342D01*
X119375601Y-135204342D02*
X119375601Y-135013866D01*
X119375601Y-135013866D02*
X119423220Y-134918628D01*
X119423220Y-134918628D02*
X119470839Y-134871009D01*
X119470839Y-134871009D02*
X119566077Y-134823390D01*
%TO.C,BZ1*%
X101829887Y-124031009D02*
X101687030Y-124078628D01*
X101687030Y-124078628D02*
X101639411Y-124126247D01*
X101639411Y-124126247D02*
X101591792Y-124221485D01*
X101591792Y-124221485D02*
X101591792Y-124364342D01*
X101591792Y-124364342D02*
X101639411Y-124459580D01*
X101639411Y-124459580D02*
X101687030Y-124507200D01*
X101687030Y-124507200D02*
X101782268Y-124554819D01*
X101782268Y-124554819D02*
X102163220Y-124554819D01*
X102163220Y-124554819D02*
X102163220Y-123554819D01*
X102163220Y-123554819D02*
X101829887Y-123554819D01*
X101829887Y-123554819D02*
X101734649Y-123602438D01*
X101734649Y-123602438D02*
X101687030Y-123650057D01*
X101687030Y-123650057D02*
X101639411Y-123745295D01*
X101639411Y-123745295D02*
X101639411Y-123840533D01*
X101639411Y-123840533D02*
X101687030Y-123935771D01*
X101687030Y-123935771D02*
X101734649Y-123983390D01*
X101734649Y-123983390D02*
X101829887Y-124031009D01*
X101829887Y-124031009D02*
X102163220Y-124031009D01*
X100734649Y-123888152D02*
X100734649Y-124554819D01*
X101163220Y-123888152D02*
X101163220Y-124411961D01*
X101163220Y-124411961D02*
X101115601Y-124507200D01*
X101115601Y-124507200D02*
X101020363Y-124554819D01*
X101020363Y-124554819D02*
X100877506Y-124554819D01*
X100877506Y-124554819D02*
X100782268Y-124507200D01*
X100782268Y-124507200D02*
X100734649Y-124459580D01*
X100353696Y-123888152D02*
X99829887Y-123888152D01*
X99829887Y-123888152D02*
X100353696Y-124554819D01*
X100353696Y-124554819D02*
X99829887Y-124554819D01*
X99544172Y-123888152D02*
X99020363Y-123888152D01*
X99020363Y-123888152D02*
X99544172Y-124554819D01*
X99544172Y-124554819D02*
X99020363Y-124554819D01*
X98258458Y-124507200D02*
X98353696Y-124554819D01*
X98353696Y-124554819D02*
X98544172Y-124554819D01*
X98544172Y-124554819D02*
X98639410Y-124507200D01*
X98639410Y-124507200D02*
X98687029Y-124411961D01*
X98687029Y-124411961D02*
X98687029Y-124031009D01*
X98687029Y-124031009D02*
X98639410Y-123935771D01*
X98639410Y-123935771D02*
X98544172Y-123888152D01*
X98544172Y-123888152D02*
X98353696Y-123888152D01*
X98353696Y-123888152D02*
X98258458Y-123935771D01*
X98258458Y-123935771D02*
X98210839Y-124031009D01*
X98210839Y-124031009D02*
X98210839Y-124126247D01*
X98210839Y-124126247D02*
X98687029Y-124221485D01*
X97782267Y-124554819D02*
X97782267Y-123888152D01*
X97782267Y-124078628D02*
X97734648Y-123983390D01*
X97734648Y-123983390D02*
X97687029Y-123935771D01*
X97687029Y-123935771D02*
X97591791Y-123888152D01*
X97591791Y-123888152D02*
X97496553Y-123888152D01*
%TO.C,D1*%
X100579410Y-60634819D02*
X100579410Y-59634819D01*
X100579410Y-59634819D02*
X100341315Y-59634819D01*
X100341315Y-59634819D02*
X100198458Y-59682438D01*
X100198458Y-59682438D02*
X100103220Y-59777676D01*
X100103220Y-59777676D02*
X100055601Y-59872914D01*
X100055601Y-59872914D02*
X100007982Y-60063390D01*
X100007982Y-60063390D02*
X100007982Y-60206247D01*
X100007982Y-60206247D02*
X100055601Y-60396723D01*
X100055601Y-60396723D02*
X100103220Y-60491961D01*
X100103220Y-60491961D02*
X100198458Y-60587200D01*
X100198458Y-60587200D02*
X100341315Y-60634819D01*
X100341315Y-60634819D02*
X100579410Y-60634819D01*
X99055601Y-60634819D02*
X99627029Y-60634819D01*
X99341315Y-60634819D02*
X99341315Y-59634819D01*
X99341315Y-59634819D02*
X99436553Y-59777676D01*
X99436553Y-59777676D02*
X99531791Y-59872914D01*
X99531791Y-59872914D02*
X99627029Y-59920533D01*
%TO.C,D13*%
X116815601Y-107954819D02*
X116815601Y-106954819D01*
X116815601Y-106954819D02*
X116577506Y-106954819D01*
X116577506Y-106954819D02*
X116434649Y-107002438D01*
X116434649Y-107002438D02*
X116339411Y-107097676D01*
X116339411Y-107097676D02*
X116291792Y-107192914D01*
X116291792Y-107192914D02*
X116244173Y-107383390D01*
X116244173Y-107383390D02*
X116244173Y-107526247D01*
X116244173Y-107526247D02*
X116291792Y-107716723D01*
X116291792Y-107716723D02*
X116339411Y-107811961D01*
X116339411Y-107811961D02*
X116434649Y-107907200D01*
X116434649Y-107907200D02*
X116577506Y-107954819D01*
X116577506Y-107954819D02*
X116815601Y-107954819D01*
X115291792Y-107954819D02*
X115863220Y-107954819D01*
X115577506Y-107954819D02*
X115577506Y-106954819D01*
X115577506Y-106954819D02*
X115672744Y-107097676D01*
X115672744Y-107097676D02*
X115767982Y-107192914D01*
X115767982Y-107192914D02*
X115863220Y-107240533D01*
X114958458Y-106954819D02*
X114339411Y-106954819D01*
X114339411Y-106954819D02*
X114672744Y-107335771D01*
X114672744Y-107335771D02*
X114529887Y-107335771D01*
X114529887Y-107335771D02*
X114434649Y-107383390D01*
X114434649Y-107383390D02*
X114387030Y-107431009D01*
X114387030Y-107431009D02*
X114339411Y-107526247D01*
X114339411Y-107526247D02*
X114339411Y-107764342D01*
X114339411Y-107764342D02*
X114387030Y-107859580D01*
X114387030Y-107859580D02*
X114434649Y-107907200D01*
X114434649Y-107907200D02*
X114529887Y-107954819D01*
X114529887Y-107954819D02*
X114815601Y-107954819D01*
X114815601Y-107954819D02*
X114910839Y-107907200D01*
X114910839Y-107907200D02*
X114958458Y-107859580D01*
%TO.C,D9*%
X135399410Y-120434819D02*
X135399410Y-119434819D01*
X135399410Y-119434819D02*
X135161315Y-119434819D01*
X135161315Y-119434819D02*
X135018458Y-119482438D01*
X135018458Y-119482438D02*
X134923220Y-119577676D01*
X134923220Y-119577676D02*
X134875601Y-119672914D01*
X134875601Y-119672914D02*
X134827982Y-119863390D01*
X134827982Y-119863390D02*
X134827982Y-120006247D01*
X134827982Y-120006247D02*
X134875601Y-120196723D01*
X134875601Y-120196723D02*
X134923220Y-120291961D01*
X134923220Y-120291961D02*
X135018458Y-120387200D01*
X135018458Y-120387200D02*
X135161315Y-120434819D01*
X135161315Y-120434819D02*
X135399410Y-120434819D01*
X134351791Y-120434819D02*
X134161315Y-120434819D01*
X134161315Y-120434819D02*
X134066077Y-120387200D01*
X134066077Y-120387200D02*
X134018458Y-120339580D01*
X134018458Y-120339580D02*
X133923220Y-120196723D01*
X133923220Y-120196723D02*
X133875601Y-120006247D01*
X133875601Y-120006247D02*
X133875601Y-119625295D01*
X133875601Y-119625295D02*
X133923220Y-119530057D01*
X133923220Y-119530057D02*
X133970839Y-119482438D01*
X133970839Y-119482438D02*
X134066077Y-119434819D01*
X134066077Y-119434819D02*
X134256553Y-119434819D01*
X134256553Y-119434819D02*
X134351791Y-119482438D01*
X134351791Y-119482438D02*
X134399410Y-119530057D01*
X134399410Y-119530057D02*
X134447029Y-119625295D01*
X134447029Y-119625295D02*
X134447029Y-119863390D01*
X134447029Y-119863390D02*
X134399410Y-119958628D01*
X134399410Y-119958628D02*
X134351791Y-120006247D01*
X134351791Y-120006247D02*
X134256553Y-120053866D01*
X134256553Y-120053866D02*
X134066077Y-120053866D01*
X134066077Y-120053866D02*
X133970839Y-120006247D01*
X133970839Y-120006247D02*
X133923220Y-119958628D01*
X133923220Y-119958628D02*
X133875601Y-119863390D01*
%TO.C,SW6*%
X121202648Y-133707200D02*
X121059791Y-133754819D01*
X121059791Y-133754819D02*
X120821696Y-133754819D01*
X120821696Y-133754819D02*
X120726458Y-133707200D01*
X120726458Y-133707200D02*
X120678839Y-133659580D01*
X120678839Y-133659580D02*
X120631220Y-133564342D01*
X120631220Y-133564342D02*
X120631220Y-133469104D01*
X120631220Y-133469104D02*
X120678839Y-133373866D01*
X120678839Y-133373866D02*
X120726458Y-133326247D01*
X120726458Y-133326247D02*
X120821696Y-133278628D01*
X120821696Y-133278628D02*
X121012172Y-133231009D01*
X121012172Y-133231009D02*
X121107410Y-133183390D01*
X121107410Y-133183390D02*
X121155029Y-133135771D01*
X121155029Y-133135771D02*
X121202648Y-133040533D01*
X121202648Y-133040533D02*
X121202648Y-132945295D01*
X121202648Y-132945295D02*
X121155029Y-132850057D01*
X121155029Y-132850057D02*
X121107410Y-132802438D01*
X121107410Y-132802438D02*
X121012172Y-132754819D01*
X121012172Y-132754819D02*
X120774077Y-132754819D01*
X120774077Y-132754819D02*
X120631220Y-132802438D01*
X120297886Y-132754819D02*
X120059791Y-133754819D01*
X120059791Y-133754819D02*
X119869315Y-133040533D01*
X119869315Y-133040533D02*
X119678839Y-133754819D01*
X119678839Y-133754819D02*
X119440744Y-132754819D01*
X118631220Y-132754819D02*
X118821696Y-132754819D01*
X118821696Y-132754819D02*
X118916934Y-132802438D01*
X118916934Y-132802438D02*
X118964553Y-132850057D01*
X118964553Y-132850057D02*
X119059791Y-132992914D01*
X119059791Y-132992914D02*
X119107410Y-133183390D01*
X119107410Y-133183390D02*
X119107410Y-133564342D01*
X119107410Y-133564342D02*
X119059791Y-133659580D01*
X119059791Y-133659580D02*
X119012172Y-133707200D01*
X119012172Y-133707200D02*
X118916934Y-133754819D01*
X118916934Y-133754819D02*
X118726458Y-133754819D01*
X118726458Y-133754819D02*
X118631220Y-133707200D01*
X118631220Y-133707200D02*
X118583601Y-133659580D01*
X118583601Y-133659580D02*
X118535982Y-133564342D01*
X118535982Y-133564342D02*
X118535982Y-133326247D01*
X118535982Y-133326247D02*
X118583601Y-133231009D01*
X118583601Y-133231009D02*
X118631220Y-133183390D01*
X118631220Y-133183390D02*
X118726458Y-133135771D01*
X118726458Y-133135771D02*
X118916934Y-133135771D01*
X118916934Y-133135771D02*
X119012172Y-133183390D01*
X119012172Y-133183390D02*
X119059791Y-133231009D01*
X119059791Y-133231009D02*
X119107410Y-133326247D01*
X122557983Y-125921009D02*
X122415126Y-125968628D01*
X122415126Y-125968628D02*
X122367507Y-126016247D01*
X122367507Y-126016247D02*
X122319888Y-126111485D01*
X122319888Y-126111485D02*
X122319888Y-126254342D01*
X122319888Y-126254342D02*
X122367507Y-126349580D01*
X122367507Y-126349580D02*
X122415126Y-126397200D01*
X122415126Y-126397200D02*
X122510364Y-126444819D01*
X122510364Y-126444819D02*
X122891316Y-126444819D01*
X122891316Y-126444819D02*
X122891316Y-125444819D01*
X122891316Y-125444819D02*
X122557983Y-125444819D01*
X122557983Y-125444819D02*
X122462745Y-125492438D01*
X122462745Y-125492438D02*
X122415126Y-125540057D01*
X122415126Y-125540057D02*
X122367507Y-125635295D01*
X122367507Y-125635295D02*
X122367507Y-125730533D01*
X122367507Y-125730533D02*
X122415126Y-125825771D01*
X122415126Y-125825771D02*
X122462745Y-125873390D01*
X122462745Y-125873390D02*
X122557983Y-125921009D01*
X122557983Y-125921009D02*
X122891316Y-125921009D01*
X121462745Y-125778152D02*
X121462745Y-126444819D01*
X121891316Y-125778152D02*
X121891316Y-126301961D01*
X121891316Y-126301961D02*
X121843697Y-126397200D01*
X121843697Y-126397200D02*
X121748459Y-126444819D01*
X121748459Y-126444819D02*
X121605602Y-126444819D01*
X121605602Y-126444819D02*
X121510364Y-126397200D01*
X121510364Y-126397200D02*
X121462745Y-126349580D01*
X121129411Y-125778152D02*
X120748459Y-125778152D01*
X120986554Y-125444819D02*
X120986554Y-126301961D01*
X120986554Y-126301961D02*
X120938935Y-126397200D01*
X120938935Y-126397200D02*
X120843697Y-126444819D01*
X120843697Y-126444819D02*
X120748459Y-126444819D01*
X120557982Y-125778152D02*
X120177030Y-125778152D01*
X120415125Y-125444819D02*
X120415125Y-126301961D01*
X120415125Y-126301961D02*
X120367506Y-126397200D01*
X120367506Y-126397200D02*
X120272268Y-126444819D01*
X120272268Y-126444819D02*
X120177030Y-126444819D01*
X119700839Y-126444819D02*
X119796077Y-126397200D01*
X119796077Y-126397200D02*
X119843696Y-126349580D01*
X119843696Y-126349580D02*
X119891315Y-126254342D01*
X119891315Y-126254342D02*
X119891315Y-125968628D01*
X119891315Y-125968628D02*
X119843696Y-125873390D01*
X119843696Y-125873390D02*
X119796077Y-125825771D01*
X119796077Y-125825771D02*
X119700839Y-125778152D01*
X119700839Y-125778152D02*
X119557982Y-125778152D01*
X119557982Y-125778152D02*
X119462744Y-125825771D01*
X119462744Y-125825771D02*
X119415125Y-125873390D01*
X119415125Y-125873390D02*
X119367506Y-125968628D01*
X119367506Y-125968628D02*
X119367506Y-126254342D01*
X119367506Y-126254342D02*
X119415125Y-126349580D01*
X119415125Y-126349580D02*
X119462744Y-126397200D01*
X119462744Y-126397200D02*
X119557982Y-126444819D01*
X119557982Y-126444819D02*
X119700839Y-126444819D01*
X118938934Y-125778152D02*
X118938934Y-126444819D01*
X118938934Y-125873390D02*
X118891315Y-125825771D01*
X118891315Y-125825771D02*
X118796077Y-125778152D01*
X118796077Y-125778152D02*
X118653220Y-125778152D01*
X118653220Y-125778152D02*
X118557982Y-125825771D01*
X118557982Y-125825771D02*
X118510363Y-125921009D01*
X118510363Y-125921009D02*
X118510363Y-126444819D01*
X117319886Y-126159104D02*
X116843696Y-126159104D01*
X117415124Y-126444819D02*
X117081791Y-125444819D01*
X117081791Y-125444819D02*
X116748458Y-126444819D01*
%TO.C,D4*%
X61029410Y-100484819D02*
X61029410Y-99484819D01*
X61029410Y-99484819D02*
X60791315Y-99484819D01*
X60791315Y-99484819D02*
X60648458Y-99532438D01*
X60648458Y-99532438D02*
X60553220Y-99627676D01*
X60553220Y-99627676D02*
X60505601Y-99722914D01*
X60505601Y-99722914D02*
X60457982Y-99913390D01*
X60457982Y-99913390D02*
X60457982Y-100056247D01*
X60457982Y-100056247D02*
X60505601Y-100246723D01*
X60505601Y-100246723D02*
X60553220Y-100341961D01*
X60553220Y-100341961D02*
X60648458Y-100437200D01*
X60648458Y-100437200D02*
X60791315Y-100484819D01*
X60791315Y-100484819D02*
X61029410Y-100484819D01*
X59600839Y-99818152D02*
X59600839Y-100484819D01*
X59838934Y-99437200D02*
X60077029Y-100151485D01*
X60077029Y-100151485D02*
X59457982Y-100151485D01*
%TO.C,SW5*%
X81202648Y-133807200D02*
X81059791Y-133854819D01*
X81059791Y-133854819D02*
X80821696Y-133854819D01*
X80821696Y-133854819D02*
X80726458Y-133807200D01*
X80726458Y-133807200D02*
X80678839Y-133759580D01*
X80678839Y-133759580D02*
X80631220Y-133664342D01*
X80631220Y-133664342D02*
X80631220Y-133569104D01*
X80631220Y-133569104D02*
X80678839Y-133473866D01*
X80678839Y-133473866D02*
X80726458Y-133426247D01*
X80726458Y-133426247D02*
X80821696Y-133378628D01*
X80821696Y-133378628D02*
X81012172Y-133331009D01*
X81012172Y-133331009D02*
X81107410Y-133283390D01*
X81107410Y-133283390D02*
X81155029Y-133235771D01*
X81155029Y-133235771D02*
X81202648Y-133140533D01*
X81202648Y-133140533D02*
X81202648Y-133045295D01*
X81202648Y-133045295D02*
X81155029Y-132950057D01*
X81155029Y-132950057D02*
X81107410Y-132902438D01*
X81107410Y-132902438D02*
X81012172Y-132854819D01*
X81012172Y-132854819D02*
X80774077Y-132854819D01*
X80774077Y-132854819D02*
X80631220Y-132902438D01*
X80297886Y-132854819D02*
X80059791Y-133854819D01*
X80059791Y-133854819D02*
X79869315Y-133140533D01*
X79869315Y-133140533D02*
X79678839Y-133854819D01*
X79678839Y-133854819D02*
X79440744Y-132854819D01*
X78583601Y-132854819D02*
X79059791Y-132854819D01*
X79059791Y-132854819D02*
X79107410Y-133331009D01*
X79107410Y-133331009D02*
X79059791Y-133283390D01*
X79059791Y-133283390D02*
X78964553Y-133235771D01*
X78964553Y-133235771D02*
X78726458Y-133235771D01*
X78726458Y-133235771D02*
X78631220Y-133283390D01*
X78631220Y-133283390D02*
X78583601Y-133331009D01*
X78583601Y-133331009D02*
X78535982Y-133426247D01*
X78535982Y-133426247D02*
X78535982Y-133664342D01*
X78535982Y-133664342D02*
X78583601Y-133759580D01*
X78583601Y-133759580D02*
X78631220Y-133807200D01*
X78631220Y-133807200D02*
X78726458Y-133854819D01*
X78726458Y-133854819D02*
X78964553Y-133854819D01*
X78964553Y-133854819D02*
X79059791Y-133807200D01*
X79059791Y-133807200D02*
X79107410Y-133759580D01*
X82639411Y-125831009D02*
X82496554Y-125878628D01*
X82496554Y-125878628D02*
X82448935Y-125926247D01*
X82448935Y-125926247D02*
X82401316Y-126021485D01*
X82401316Y-126021485D02*
X82401316Y-126164342D01*
X82401316Y-126164342D02*
X82448935Y-126259580D01*
X82448935Y-126259580D02*
X82496554Y-126307200D01*
X82496554Y-126307200D02*
X82591792Y-126354819D01*
X82591792Y-126354819D02*
X82972744Y-126354819D01*
X82972744Y-126354819D02*
X82972744Y-125354819D01*
X82972744Y-125354819D02*
X82639411Y-125354819D01*
X82639411Y-125354819D02*
X82544173Y-125402438D01*
X82544173Y-125402438D02*
X82496554Y-125450057D01*
X82496554Y-125450057D02*
X82448935Y-125545295D01*
X82448935Y-125545295D02*
X82448935Y-125640533D01*
X82448935Y-125640533D02*
X82496554Y-125735771D01*
X82496554Y-125735771D02*
X82544173Y-125783390D01*
X82544173Y-125783390D02*
X82639411Y-125831009D01*
X82639411Y-125831009D02*
X82972744Y-125831009D01*
X81544173Y-125688152D02*
X81544173Y-126354819D01*
X81972744Y-125688152D02*
X81972744Y-126211961D01*
X81972744Y-126211961D02*
X81925125Y-126307200D01*
X81925125Y-126307200D02*
X81829887Y-126354819D01*
X81829887Y-126354819D02*
X81687030Y-126354819D01*
X81687030Y-126354819D02*
X81591792Y-126307200D01*
X81591792Y-126307200D02*
X81544173Y-126259580D01*
X81210839Y-125688152D02*
X80829887Y-125688152D01*
X81067982Y-125354819D02*
X81067982Y-126211961D01*
X81067982Y-126211961D02*
X81020363Y-126307200D01*
X81020363Y-126307200D02*
X80925125Y-126354819D01*
X80925125Y-126354819D02*
X80829887Y-126354819D01*
X80639410Y-125688152D02*
X80258458Y-125688152D01*
X80496553Y-125354819D02*
X80496553Y-126211961D01*
X80496553Y-126211961D02*
X80448934Y-126307200D01*
X80448934Y-126307200D02*
X80353696Y-126354819D01*
X80353696Y-126354819D02*
X80258458Y-126354819D01*
X79782267Y-126354819D02*
X79877505Y-126307200D01*
X79877505Y-126307200D02*
X79925124Y-126259580D01*
X79925124Y-126259580D02*
X79972743Y-126164342D01*
X79972743Y-126164342D02*
X79972743Y-125878628D01*
X79972743Y-125878628D02*
X79925124Y-125783390D01*
X79925124Y-125783390D02*
X79877505Y-125735771D01*
X79877505Y-125735771D02*
X79782267Y-125688152D01*
X79782267Y-125688152D02*
X79639410Y-125688152D01*
X79639410Y-125688152D02*
X79544172Y-125735771D01*
X79544172Y-125735771D02*
X79496553Y-125783390D01*
X79496553Y-125783390D02*
X79448934Y-125878628D01*
X79448934Y-125878628D02*
X79448934Y-126164342D01*
X79448934Y-126164342D02*
X79496553Y-126259580D01*
X79496553Y-126259580D02*
X79544172Y-126307200D01*
X79544172Y-126307200D02*
X79639410Y-126354819D01*
X79639410Y-126354819D02*
X79782267Y-126354819D01*
X79020362Y-125688152D02*
X79020362Y-126354819D01*
X79020362Y-125783390D02*
X78972743Y-125735771D01*
X78972743Y-125735771D02*
X78877505Y-125688152D01*
X78877505Y-125688152D02*
X78734648Y-125688152D01*
X78734648Y-125688152D02*
X78639410Y-125735771D01*
X78639410Y-125735771D02*
X78591791Y-125831009D01*
X78591791Y-125831009D02*
X78591791Y-126354819D01*
X77020362Y-125831009D02*
X76877505Y-125878628D01*
X76877505Y-125878628D02*
X76829886Y-125926247D01*
X76829886Y-125926247D02*
X76782267Y-126021485D01*
X76782267Y-126021485D02*
X76782267Y-126164342D01*
X76782267Y-126164342D02*
X76829886Y-126259580D01*
X76829886Y-126259580D02*
X76877505Y-126307200D01*
X76877505Y-126307200D02*
X76972743Y-126354819D01*
X76972743Y-126354819D02*
X77353695Y-126354819D01*
X77353695Y-126354819D02*
X77353695Y-125354819D01*
X77353695Y-125354819D02*
X77020362Y-125354819D01*
X77020362Y-125354819D02*
X76925124Y-125402438D01*
X76925124Y-125402438D02*
X76877505Y-125450057D01*
X76877505Y-125450057D02*
X76829886Y-125545295D01*
X76829886Y-125545295D02*
X76829886Y-125640533D01*
X76829886Y-125640533D02*
X76877505Y-125735771D01*
X76877505Y-125735771D02*
X76925124Y-125783390D01*
X76925124Y-125783390D02*
X77020362Y-125831009D01*
X77020362Y-125831009D02*
X77353695Y-125831009D01*
%TO.C,D7*%
X100619410Y-140994819D02*
X100619410Y-139994819D01*
X100619410Y-139994819D02*
X100381315Y-139994819D01*
X100381315Y-139994819D02*
X100238458Y-140042438D01*
X100238458Y-140042438D02*
X100143220Y-140137676D01*
X100143220Y-140137676D02*
X100095601Y-140232914D01*
X100095601Y-140232914D02*
X100047982Y-140423390D01*
X100047982Y-140423390D02*
X100047982Y-140566247D01*
X100047982Y-140566247D02*
X100095601Y-140756723D01*
X100095601Y-140756723D02*
X100143220Y-140851961D01*
X100143220Y-140851961D02*
X100238458Y-140947200D01*
X100238458Y-140947200D02*
X100381315Y-140994819D01*
X100381315Y-140994819D02*
X100619410Y-140994819D01*
X99714648Y-139994819D02*
X99047982Y-139994819D01*
X99047982Y-139994819D02*
X99476553Y-140994819D01*
%TO.C,D11*%
X135215601Y-80684818D02*
X135215601Y-79684818D01*
X135215601Y-79684818D02*
X134977506Y-79684818D01*
X134977506Y-79684818D02*
X134834649Y-79732437D01*
X134834649Y-79732437D02*
X134739411Y-79827675D01*
X134739411Y-79827675D02*
X134691792Y-79922913D01*
X134691792Y-79922913D02*
X134644173Y-80113389D01*
X134644173Y-80113389D02*
X134644173Y-80256246D01*
X134644173Y-80256246D02*
X134691792Y-80446722D01*
X134691792Y-80446722D02*
X134739411Y-80541960D01*
X134739411Y-80541960D02*
X134834649Y-80637199D01*
X134834649Y-80637199D02*
X134977506Y-80684818D01*
X134977506Y-80684818D02*
X135215601Y-80684818D01*
X133691792Y-80684818D02*
X134263220Y-80684818D01*
X133977506Y-80684818D02*
X133977506Y-79684818D01*
X133977506Y-79684818D02*
X134072744Y-79827675D01*
X134072744Y-79827675D02*
X134167982Y-79922913D01*
X134167982Y-79922913D02*
X134263220Y-79970532D01*
X132739411Y-80684818D02*
X133310839Y-80684818D01*
X133025125Y-80684818D02*
X133025125Y-79684818D01*
X133025125Y-79684818D02*
X133120363Y-79827675D01*
X133120363Y-79827675D02*
X133215601Y-79922913D01*
X133215601Y-79922913D02*
X133310839Y-79970532D01*
%TO.C,X1*%
X76397506Y-84437200D02*
X76254649Y-84484819D01*
X76254649Y-84484819D02*
X76016554Y-84484819D01*
X76016554Y-84484819D02*
X75921316Y-84437200D01*
X75921316Y-84437200D02*
X75873697Y-84389580D01*
X75873697Y-84389580D02*
X75826078Y-84294342D01*
X75826078Y-84294342D02*
X75826078Y-84199104D01*
X75826078Y-84199104D02*
X75873697Y-84103866D01*
X75873697Y-84103866D02*
X75921316Y-84056247D01*
X75921316Y-84056247D02*
X76016554Y-84008628D01*
X76016554Y-84008628D02*
X76207030Y-83961009D01*
X76207030Y-83961009D02*
X76302268Y-83913390D01*
X76302268Y-83913390D02*
X76349887Y-83865771D01*
X76349887Y-83865771D02*
X76397506Y-83770533D01*
X76397506Y-83770533D02*
X76397506Y-83675295D01*
X76397506Y-83675295D02*
X76349887Y-83580057D01*
X76349887Y-83580057D02*
X76302268Y-83532438D01*
X76302268Y-83532438D02*
X76207030Y-83484819D01*
X76207030Y-83484819D02*
X75968935Y-83484819D01*
X75968935Y-83484819D02*
X75826078Y-83532438D01*
X75445125Y-84199104D02*
X74968935Y-84199104D01*
X75540363Y-84484819D02*
X75207030Y-83484819D01*
X75207030Y-83484819D02*
X74873697Y-84484819D01*
X74349887Y-83484819D02*
X74159411Y-83484819D01*
X74159411Y-83484819D02*
X74064173Y-83532438D01*
X74064173Y-83532438D02*
X73968935Y-83627676D01*
X73968935Y-83627676D02*
X73921316Y-83818152D01*
X73921316Y-83818152D02*
X73921316Y-84151485D01*
X73921316Y-84151485D02*
X73968935Y-84341961D01*
X73968935Y-84341961D02*
X74064173Y-84437200D01*
X74064173Y-84437200D02*
X74159411Y-84484819D01*
X74159411Y-84484819D02*
X74349887Y-84484819D01*
X74349887Y-84484819D02*
X74445125Y-84437200D01*
X74445125Y-84437200D02*
X74540363Y-84341961D01*
X74540363Y-84341961D02*
X74587982Y-84151485D01*
X74587982Y-84151485D02*
X74587982Y-83818152D01*
X74587982Y-83818152D02*
X74540363Y-83627676D01*
X74540363Y-83627676D02*
X74445125Y-83532438D01*
X74445125Y-83532438D02*
X74349887Y-83484819D01*
X73730840Y-84580057D02*
X72968935Y-84580057D01*
X72826077Y-83818152D02*
X72587982Y-84484819D01*
X72587982Y-84484819D02*
X72349887Y-83818152D01*
X72016553Y-83580057D02*
X71968934Y-83532438D01*
X71968934Y-83532438D02*
X71873696Y-83484819D01*
X71873696Y-83484819D02*
X71635601Y-83484819D01*
X71635601Y-83484819D02*
X71540363Y-83532438D01*
X71540363Y-83532438D02*
X71492744Y-83580057D01*
X71492744Y-83580057D02*
X71445125Y-83675295D01*
X71445125Y-83675295D02*
X71445125Y-83770533D01*
X71445125Y-83770533D02*
X71492744Y-83913390D01*
X71492744Y-83913390D02*
X72064172Y-84484819D01*
X72064172Y-84484819D02*
X71445125Y-84484819D01*
%TO.C,D10*%
X140575601Y-100444819D02*
X140575601Y-99444819D01*
X140575601Y-99444819D02*
X140337506Y-99444819D01*
X140337506Y-99444819D02*
X140194649Y-99492438D01*
X140194649Y-99492438D02*
X140099411Y-99587676D01*
X140099411Y-99587676D02*
X140051792Y-99682914D01*
X140051792Y-99682914D02*
X140004173Y-99873390D01*
X140004173Y-99873390D02*
X140004173Y-100016247D01*
X140004173Y-100016247D02*
X140051792Y-100206723D01*
X140051792Y-100206723D02*
X140099411Y-100301961D01*
X140099411Y-100301961D02*
X140194649Y-100397200D01*
X140194649Y-100397200D02*
X140337506Y-100444819D01*
X140337506Y-100444819D02*
X140575601Y-100444819D01*
X139051792Y-100444819D02*
X139623220Y-100444819D01*
X139337506Y-100444819D02*
X139337506Y-99444819D01*
X139337506Y-99444819D02*
X139432744Y-99587676D01*
X139432744Y-99587676D02*
X139527982Y-99682914D01*
X139527982Y-99682914D02*
X139623220Y-99730533D01*
X138432744Y-99444819D02*
X138337506Y-99444819D01*
X138337506Y-99444819D02*
X138242268Y-99492438D01*
X138242268Y-99492438D02*
X138194649Y-99540057D01*
X138194649Y-99540057D02*
X138147030Y-99635295D01*
X138147030Y-99635295D02*
X138099411Y-99825771D01*
X138099411Y-99825771D02*
X138099411Y-100063866D01*
X138099411Y-100063866D02*
X138147030Y-100254342D01*
X138147030Y-100254342D02*
X138194649Y-100349580D01*
X138194649Y-100349580D02*
X138242268Y-100397200D01*
X138242268Y-100397200D02*
X138337506Y-100444819D01*
X138337506Y-100444819D02*
X138432744Y-100444819D01*
X138432744Y-100444819D02*
X138527982Y-100397200D01*
X138527982Y-100397200D02*
X138575601Y-100349580D01*
X138575601Y-100349580D02*
X138623220Y-100254342D01*
X138623220Y-100254342D02*
X138670839Y-100063866D01*
X138670839Y-100063866D02*
X138670839Y-99825771D01*
X138670839Y-99825771D02*
X138623220Y-99635295D01*
X138623220Y-99635295D02*
X138575601Y-99540057D01*
X138575601Y-99540057D02*
X138527982Y-99492438D01*
X138527982Y-99492438D02*
X138432744Y-99444819D01*
%TO.C,D6*%
X80529410Y-135404819D02*
X80529410Y-134404819D01*
X80529410Y-134404819D02*
X80291315Y-134404819D01*
X80291315Y-134404819D02*
X80148458Y-134452438D01*
X80148458Y-134452438D02*
X80053220Y-134547676D01*
X80053220Y-134547676D02*
X80005601Y-134642914D01*
X80005601Y-134642914D02*
X79957982Y-134833390D01*
X79957982Y-134833390D02*
X79957982Y-134976247D01*
X79957982Y-134976247D02*
X80005601Y-135166723D01*
X80005601Y-135166723D02*
X80053220Y-135261961D01*
X80053220Y-135261961D02*
X80148458Y-135357200D01*
X80148458Y-135357200D02*
X80291315Y-135404819D01*
X80291315Y-135404819D02*
X80529410Y-135404819D01*
X79100839Y-134404819D02*
X79291315Y-134404819D01*
X79291315Y-134404819D02*
X79386553Y-134452438D01*
X79386553Y-134452438D02*
X79434172Y-134500057D01*
X79434172Y-134500057D02*
X79529410Y-134642914D01*
X79529410Y-134642914D02*
X79577029Y-134833390D01*
X79577029Y-134833390D02*
X79577029Y-135214342D01*
X79577029Y-135214342D02*
X79529410Y-135309580D01*
X79529410Y-135309580D02*
X79481791Y-135357200D01*
X79481791Y-135357200D02*
X79386553Y-135404819D01*
X79386553Y-135404819D02*
X79196077Y-135404819D01*
X79196077Y-135404819D02*
X79100839Y-135357200D01*
X79100839Y-135357200D02*
X79053220Y-135309580D01*
X79053220Y-135309580D02*
X79005601Y-135214342D01*
X79005601Y-135214342D02*
X79005601Y-134976247D01*
X79005601Y-134976247D02*
X79053220Y-134881009D01*
X79053220Y-134881009D02*
X79100839Y-134833390D01*
X79100839Y-134833390D02*
X79196077Y-134785771D01*
X79196077Y-134785771D02*
X79386553Y-134785771D01*
X79386553Y-134785771D02*
X79481791Y-134833390D01*
X79481791Y-134833390D02*
X79529410Y-134881009D01*
X79529410Y-134881009D02*
X79577029Y-134976247D01*
%TO.C,D14*%
X84285601Y-84054819D02*
X84285601Y-83054819D01*
X84285601Y-83054819D02*
X84047506Y-83054819D01*
X84047506Y-83054819D02*
X83904649Y-83102438D01*
X83904649Y-83102438D02*
X83809411Y-83197676D01*
X83809411Y-83197676D02*
X83761792Y-83292914D01*
X83761792Y-83292914D02*
X83714173Y-83483390D01*
X83714173Y-83483390D02*
X83714173Y-83626247D01*
X83714173Y-83626247D02*
X83761792Y-83816723D01*
X83761792Y-83816723D02*
X83809411Y-83911961D01*
X83809411Y-83911961D02*
X83904649Y-84007200D01*
X83904649Y-84007200D02*
X84047506Y-84054819D01*
X84047506Y-84054819D02*
X84285601Y-84054819D01*
X82761792Y-84054819D02*
X83333220Y-84054819D01*
X83047506Y-84054819D02*
X83047506Y-83054819D01*
X83047506Y-83054819D02*
X83142744Y-83197676D01*
X83142744Y-83197676D02*
X83237982Y-83292914D01*
X83237982Y-83292914D02*
X83333220Y-83340533D01*
X81904649Y-83388152D02*
X81904649Y-84054819D01*
X82142744Y-83007200D02*
X82380839Y-83721485D01*
X82380839Y-83721485D02*
X81761792Y-83721485D01*
D11*
%TO.C,D5*%
X56464007Y-121943430D02*
X62785993Y-118293430D01*
X59214007Y-126706570D02*
X65535993Y-123056570D01*
X62785993Y-118293430D02*
X63360993Y-119289359D01*
%TO.C,D2*%
X78056570Y-56464007D02*
X81706570Y-62785993D01*
X73293430Y-59214007D02*
X76943430Y-65535993D01*
X81706570Y-62785993D02*
X80710641Y-63360993D01*
%TO.C,D12*%
X126706570Y-59214007D02*
X123056570Y-65535993D01*
X121943430Y-56464007D02*
X118293430Y-62785993D01*
X123056570Y-65535993D02*
X122060641Y-64960993D01*
%TO.C,D3*%
X59214007Y-73293430D02*
X65535993Y-76943430D01*
X56464007Y-78056570D02*
X62785993Y-81706570D01*
X65535993Y-76943430D02*
X64960993Y-77939359D01*
%TO.C,D8*%
X121943430Y-143535993D02*
X118293430Y-137214007D01*
X126706570Y-140785993D02*
X123056570Y-134464007D01*
X118293430Y-137214007D02*
X119289359Y-136639007D01*
%TO.C,BZ1*%
X105600000Y-134600000D02*
X105600000Y-131350000D01*
X105600000Y-128650000D02*
X105600000Y-125400000D01*
X105600000Y-125400000D02*
X94400000Y-125400000D01*
X94400000Y-134600000D02*
X105600000Y-134600000D01*
X94400000Y-131350000D02*
X94400000Y-134600000D01*
X94400000Y-125400000D02*
X94400000Y-128650000D01*
%TO.C,D1*%
X102750000Y-51350000D02*
X102750000Y-58650000D01*
X97250000Y-51350000D02*
X97250000Y-58650000D01*
X102750000Y-58650000D02*
X101600000Y-58650000D01*
%TO.C,D13*%
X119290000Y-114180000D02*
X111990000Y-114180000D01*
X119290000Y-108680000D02*
X111990000Y-108680000D01*
X111990000Y-114180000D02*
X111990000Y-113030000D01*
%TO.C,D9*%
X140785993Y-126706570D02*
X134464007Y-123056570D01*
X143535993Y-121943430D02*
X137214007Y-118293430D01*
X134464007Y-123056570D02*
X135039007Y-122060641D01*
D12*
%TO.C,SW6*%
X122550000Y-132550000D02*
X117450000Y-132550000D01*
X122550000Y-129000000D02*
X122550000Y-131000000D01*
X122550000Y-127450000D02*
X117450000Y-127450000D01*
X117450000Y-129000000D02*
X117450000Y-131000000D01*
D11*
%TO.C,D4*%
X51350000Y-97250000D02*
X58650000Y-97250000D01*
X51350000Y-102750000D02*
X58650000Y-102750000D01*
X58650000Y-97250000D02*
X58650000Y-98400000D01*
D12*
%TO.C,SW5*%
X82550000Y-132550000D02*
X77450000Y-132550000D01*
X82550000Y-129000000D02*
X82550000Y-131000000D01*
X82550000Y-127450000D02*
X77450000Y-127450000D01*
X77450000Y-129000000D02*
X77450000Y-131000000D01*
D11*
%TO.C,D7*%
X97250000Y-148650000D02*
X97250000Y-141350000D01*
X102750000Y-148650000D02*
X102750000Y-141350000D01*
X97250000Y-141350000D02*
X98400000Y-141350000D01*
%TO.C,D11*%
X143535993Y-78056570D02*
X137214007Y-81706570D01*
X140785993Y-73293430D02*
X134464007Y-76943430D01*
X137214007Y-81706570D02*
X136639007Y-80710641D01*
D13*
%TO.C,X1*%
X80350000Y-82160000D02*
X80350000Y-76260000D01*
X80350000Y-76260000D02*
X67750000Y-76260000D01*
X67750000Y-82160000D02*
X80350000Y-82160000D01*
X67750000Y-76260000D02*
X67750000Y-82160000D01*
D14*
X76399500Y-76149300D02*
X71700500Y-76149300D01*
X71700500Y-75006300D01*
X76399500Y-75006300D01*
X76399500Y-76149300D01*
G36*
X76399500Y-76149300D02*
G01*
X71700500Y-76149300D01*
X71700500Y-75006300D01*
X76399500Y-75006300D01*
X76399500Y-76149300D01*
G37*
D11*
%TO.C,D10*%
X148650000Y-102750000D02*
X141350000Y-102750000D01*
X148650000Y-97250000D02*
X141350000Y-97250000D01*
X141350000Y-102750000D02*
X141350000Y-101600000D01*
%TO.C,D6*%
X73293430Y-140785993D02*
X76943430Y-134464007D01*
X78056570Y-143535993D02*
X81706570Y-137214007D01*
X76943430Y-134464007D02*
X77939359Y-135039007D01*
%TO.C,D14*%
X86820000Y-90360000D02*
X79520000Y-90360000D01*
X86820000Y-84860000D02*
X79520000Y-84860000D01*
X79520000Y-90360000D02*
X79520000Y-89210000D01*
%TO.C,G\u002A\u002A\u002A*%
G36*
X93240777Y-75150258D02*
G01*
X95663800Y-75159233D01*
X95802425Y-75270821D01*
X95841807Y-75303287D01*
X95966547Y-75425550D01*
X96047106Y-75552322D01*
X96094580Y-75705876D01*
X96120065Y-75908488D01*
X96120346Y-75913499D01*
X96121753Y-75981726D01*
X96123095Y-76119502D01*
X96124372Y-76324641D01*
X96125581Y-76594959D01*
X96126722Y-76928271D01*
X96127792Y-77322391D01*
X96128791Y-77775135D01*
X96129717Y-78284317D01*
X96130568Y-78847753D01*
X96131344Y-79463258D01*
X96132042Y-80128647D01*
X96132661Y-80841734D01*
X96133201Y-81600336D01*
X96133659Y-82402266D01*
X96134034Y-83245340D01*
X96134324Y-84127373D01*
X96134529Y-85046179D01*
X96134646Y-85999575D01*
X96134675Y-86985375D01*
X96134614Y-88001393D01*
X96134461Y-89045446D01*
X96134215Y-90115348D01*
X96133875Y-91208914D01*
X96133438Y-92323959D01*
X96132905Y-93458298D01*
X96132273Y-94609746D01*
X96121448Y-113013952D01*
X95986661Y-113186957D01*
X95967912Y-113210834D01*
X95858427Y-113337501D01*
X95760506Y-113417694D01*
X95652770Y-113465305D01*
X95513841Y-113494228D01*
X95510065Y-113494737D01*
X95434462Y-113499555D01*
X95294188Y-113503933D01*
X95096043Y-113507808D01*
X94846829Y-113511116D01*
X94553346Y-113513795D01*
X94222393Y-113515781D01*
X93860772Y-113517011D01*
X93475283Y-113517421D01*
X93072727Y-113516948D01*
X92639792Y-113516072D01*
X92231721Y-113515191D01*
X91885063Y-113513851D01*
X91594211Y-113511496D01*
X91353561Y-113507574D01*
X91157507Y-113501531D01*
X91000444Y-113492813D01*
X90876767Y-113480866D01*
X90780870Y-113465137D01*
X90707150Y-113445072D01*
X90650000Y-113420117D01*
X90603815Y-113389718D01*
X90562990Y-113353322D01*
X90521920Y-113310375D01*
X90475000Y-113260323D01*
X90348721Y-113128979D01*
X90322192Y-112400356D01*
X90320297Y-112332841D01*
X90317358Y-112177310D01*
X90314182Y-111956007D01*
X90310798Y-111672694D01*
X90307234Y-111331135D01*
X90303518Y-110935093D01*
X90299677Y-110488330D01*
X90295738Y-109994611D01*
X90291731Y-109457696D01*
X90287683Y-108881351D01*
X90283621Y-108269337D01*
X90279573Y-107625418D01*
X90275568Y-106953357D01*
X90271633Y-106256917D01*
X90267796Y-105539860D01*
X90264084Y-104805950D01*
X90260526Y-104058949D01*
X90258994Y-103725496D01*
X90255097Y-102864689D01*
X90251527Y-102071780D01*
X90248186Y-101343653D01*
X90244977Y-100677192D01*
X90241803Y-100069281D01*
X90238566Y-99516805D01*
X90235169Y-99016646D01*
X90231514Y-98565688D01*
X90227503Y-98160817D01*
X90223040Y-97798915D01*
X90218026Y-97476866D01*
X90212364Y-97191555D01*
X90205958Y-96939865D01*
X90198708Y-96718680D01*
X90190518Y-96524884D01*
X90181290Y-96355361D01*
X90170927Y-96206995D01*
X90159332Y-96076670D01*
X90146406Y-95961269D01*
X90132052Y-95857677D01*
X90116173Y-95762777D01*
X90098671Y-95673454D01*
X90079450Y-95586591D01*
X90058410Y-95499073D01*
X90035455Y-95407782D01*
X90010488Y-95309604D01*
X89983410Y-95201421D01*
X89857789Y-94743240D01*
X89619303Y-94064694D01*
X89330686Y-93437662D01*
X88991668Y-92861647D01*
X88601977Y-92336152D01*
X88161342Y-91860680D01*
X87827845Y-91560643D01*
X87307842Y-91171744D01*
X86750719Y-90843633D01*
X86155821Y-90576069D01*
X85522491Y-90368812D01*
X84850076Y-90221621D01*
X84137920Y-90134256D01*
X83385369Y-90106477D01*
X82899343Y-90123668D01*
X82351781Y-90183374D01*
X81836296Y-90283858D01*
X81360943Y-90423113D01*
X80933778Y-90599131D01*
X80562858Y-90809904D01*
X80470784Y-90874840D01*
X80263388Y-91039016D01*
X80043032Y-91232742D01*
X79828073Y-91438786D01*
X79636870Y-91639920D01*
X79487782Y-91818912D01*
X79454908Y-91863387D01*
X79200659Y-92262408D01*
X78970664Y-92725239D01*
X78766618Y-93247604D01*
X78590216Y-93825229D01*
X78443153Y-94453837D01*
X78420484Y-94572338D01*
X78384600Y-94799976D01*
X78356666Y-95045495D01*
X78334796Y-95326978D01*
X78317107Y-95662502D01*
X78315673Y-95702114D01*
X78312420Y-95839942D01*
X78309041Y-96044725D01*
X78305559Y-96312886D01*
X78301996Y-96640849D01*
X78298375Y-97025038D01*
X78294721Y-97461878D01*
X78291055Y-97947791D01*
X78287400Y-98479203D01*
X78283780Y-99052537D01*
X78280218Y-99664216D01*
X78276737Y-100310666D01*
X78273359Y-100988310D01*
X78270108Y-101693571D01*
X78267007Y-102422875D01*
X78264078Y-103172644D01*
X78261346Y-103939304D01*
X78258832Y-104719277D01*
X78233473Y-113028468D01*
X78131031Y-113169886D01*
X78079318Y-113230248D01*
X77964150Y-113333669D01*
X77838655Y-113420228D01*
X77648721Y-113529153D01*
X75281679Y-113529491D01*
X72914638Y-113529830D01*
X72751543Y-113405298D01*
X72695004Y-113357515D01*
X72581048Y-113238438D01*
X72493798Y-113119257D01*
X72399147Y-112957748D01*
X72399736Y-104810195D01*
X72399836Y-104084192D01*
X72400146Y-103143353D01*
X72400684Y-102269690D01*
X72401488Y-101460315D01*
X72402591Y-100712341D01*
X72404030Y-100022878D01*
X72405838Y-99389039D01*
X72408052Y-98807935D01*
X72410707Y-98276679D01*
X72413837Y-97792382D01*
X72417477Y-97352157D01*
X72421663Y-96953115D01*
X72426431Y-96592368D01*
X72431814Y-96267027D01*
X72437848Y-95974206D01*
X72444569Y-95711015D01*
X72452011Y-95474567D01*
X72460210Y-95261973D01*
X72469200Y-95070346D01*
X72479018Y-94896797D01*
X72489697Y-94738437D01*
X72501273Y-94592380D01*
X72513782Y-94455737D01*
X72527257Y-94325620D01*
X72567215Y-93989387D01*
X72712877Y-93059449D01*
X72904995Y-92172383D01*
X73142514Y-91332102D01*
X73424373Y-90542513D01*
X73749517Y-89807529D01*
X74070645Y-89203949D01*
X74499277Y-88527642D01*
X74973087Y-87907538D01*
X75491849Y-87343786D01*
X76055335Y-86836537D01*
X76663319Y-86385939D01*
X77315574Y-85992142D01*
X78011872Y-85655296D01*
X78751987Y-85375549D01*
X79535692Y-85153052D01*
X80362760Y-84987953D01*
X81232963Y-84880402D01*
X81244334Y-84879418D01*
X81465509Y-84865652D01*
X81736530Y-84856761D01*
X82043847Y-84852499D01*
X82373910Y-84852620D01*
X82713167Y-84856881D01*
X83048068Y-84865036D01*
X83365062Y-84876841D01*
X83650599Y-84892052D01*
X83891127Y-84910422D01*
X84073096Y-84931707D01*
X84412773Y-84988157D01*
X85275701Y-85174918D01*
X86093532Y-85416919D01*
X86865686Y-85713947D01*
X87591580Y-86065789D01*
X88270631Y-86472231D01*
X88579034Y-86682976D01*
X88873462Y-86900279D01*
X89161384Y-87131564D01*
X89460175Y-87390807D01*
X89787211Y-87691982D01*
X90246642Y-88124731D01*
X90270622Y-84332953D01*
X90270688Y-84322516D01*
X90274211Y-83737749D01*
X90277577Y-83126952D01*
X90280748Y-82499944D01*
X90283688Y-81866542D01*
X90286358Y-81236567D01*
X90288720Y-80619836D01*
X90290737Y-80026168D01*
X90292371Y-79465383D01*
X90293585Y-78947298D01*
X90294341Y-78481733D01*
X90294602Y-78078506D01*
X90294602Y-75615837D01*
X90413538Y-75459901D01*
X90455988Y-75409168D01*
X90566634Y-75301927D01*
X90675115Y-75222624D01*
X90817755Y-75141283D01*
X93240777Y-75150258D01*
G37*
G36*
X127047780Y-85625420D02*
G01*
X127104833Y-85676895D01*
X127205938Y-85789079D01*
X127276993Y-85894579D01*
X127282161Y-85905262D01*
X127287206Y-85918068D01*
X127291988Y-85934556D01*
X127296513Y-85956578D01*
X127300790Y-85985984D01*
X127304824Y-86024625D01*
X127308623Y-86074352D01*
X127312194Y-86137015D01*
X127315544Y-86214466D01*
X127318680Y-86308554D01*
X127321610Y-86421131D01*
X127324339Y-86554047D01*
X127326876Y-86709153D01*
X127329227Y-86888300D01*
X127331399Y-87093338D01*
X127333400Y-87326119D01*
X127335236Y-87588492D01*
X127336915Y-87882309D01*
X127338444Y-88209420D01*
X127339829Y-88571676D01*
X127341078Y-88970927D01*
X127342197Y-89409025D01*
X127343195Y-89887820D01*
X127344077Y-90409163D01*
X127344851Y-90974904D01*
X127345524Y-91586894D01*
X127346104Y-92246984D01*
X127346596Y-92957025D01*
X127347008Y-93718868D01*
X127347348Y-94534362D01*
X127347622Y-95405359D01*
X127347837Y-96333709D01*
X127348001Y-97321263D01*
X127348120Y-98369873D01*
X127348202Y-99481388D01*
X127348253Y-100657659D01*
X127348281Y-101900537D01*
X127348293Y-103211873D01*
X127348295Y-104593517D01*
X127348295Y-123152692D01*
X127220382Y-123320215D01*
X127165213Y-123385447D01*
X127058022Y-123488249D01*
X126958805Y-123559001D01*
X126940844Y-123568214D01*
X126910603Y-123581060D01*
X126873271Y-123591956D01*
X126823428Y-123601041D01*
X126755650Y-123608449D01*
X126664514Y-123614318D01*
X126544599Y-123618782D01*
X126390483Y-123621979D01*
X126196742Y-123624044D01*
X125957954Y-123625114D01*
X125668698Y-123625324D01*
X125323550Y-123624812D01*
X124917089Y-123623713D01*
X124443892Y-123622164D01*
X124271456Y-123621599D01*
X123812092Y-123620197D01*
X123417597Y-123618772D01*
X123082538Y-123616808D01*
X122801480Y-123613784D01*
X122568991Y-123609185D01*
X122379635Y-123602492D01*
X122227979Y-123593187D01*
X122108590Y-123580753D01*
X122016034Y-123564672D01*
X121944876Y-123544426D01*
X121889683Y-123519497D01*
X121845022Y-123489368D01*
X121805458Y-123453521D01*
X121765557Y-123411437D01*
X121719886Y-123362600D01*
X121593608Y-123231258D01*
X121565587Y-117686856D01*
X121565147Y-117600535D01*
X121561596Y-116948539D01*
X121557781Y-116322215D01*
X121553742Y-115725140D01*
X121549518Y-115160890D01*
X121545146Y-114633040D01*
X121540666Y-114145166D01*
X121536115Y-113700844D01*
X121531533Y-113303650D01*
X121526957Y-112957160D01*
X121522427Y-112664949D01*
X121517981Y-112430594D01*
X121513657Y-112257670D01*
X121509495Y-112149753D01*
X121505531Y-112110418D01*
X121467024Y-112119373D01*
X121384179Y-112170636D01*
X121266267Y-112258033D01*
X121122425Y-112375251D01*
X120842714Y-112601092D01*
X120464069Y-112870821D01*
X120060794Y-113115638D01*
X119609233Y-113350794D01*
X119481522Y-113411887D01*
X119033542Y-113607423D01*
X118588286Y-113769823D01*
X118127234Y-113904683D01*
X117631867Y-114017602D01*
X117083664Y-114114177D01*
X117008360Y-114124971D01*
X116734499Y-114153867D01*
X116410432Y-114175934D01*
X116051406Y-114191082D01*
X115672668Y-114199224D01*
X115289462Y-114200274D01*
X114917037Y-114194142D01*
X114570638Y-114180743D01*
X114265511Y-114159987D01*
X114016903Y-114131788D01*
X113877840Y-114110327D01*
X113109310Y-113959266D01*
X112390414Y-113759405D01*
X111716073Y-113508356D01*
X111081205Y-113203732D01*
X110480731Y-112843146D01*
X109909570Y-112424209D01*
X109362642Y-111944535D01*
X109233892Y-111822366D01*
X109103851Y-111699796D01*
X108995874Y-111598864D01*
X108925004Y-111533690D01*
X108812082Y-111432025D01*
X108639356Y-111750317D01*
X108429042Y-112115345D01*
X108126636Y-112563550D01*
X107806293Y-112948543D01*
X107461817Y-113275310D01*
X107087009Y-113548836D01*
X106675670Y-113774108D01*
X106221602Y-113956112D01*
X105718608Y-114099833D01*
X105713414Y-114101070D01*
X105572957Y-114133132D01*
X105449296Y-114156922D01*
X105327606Y-114173652D01*
X105193062Y-114184532D01*
X105030840Y-114190775D01*
X104826115Y-114193593D01*
X104564062Y-114194197D01*
X104334815Y-114193558D01*
X104117694Y-114190656D01*
X103943336Y-114184227D01*
X103795836Y-114173002D01*
X103659284Y-114155714D01*
X103517773Y-114131096D01*
X103355397Y-114097879D01*
X103050944Y-114025387D01*
X102690211Y-113922853D01*
X102322105Y-113802734D01*
X101957785Y-113669581D01*
X101608408Y-113527945D01*
X101285134Y-113382374D01*
X100999119Y-113237420D01*
X100761523Y-113097632D01*
X100583504Y-112967561D01*
X100546180Y-112936056D01*
X100492518Y-112890388D01*
X100447509Y-112846769D01*
X100410355Y-112799014D01*
X100380259Y-112740941D01*
X100356423Y-112666365D01*
X100338050Y-112569104D01*
X100324342Y-112442973D01*
X100314502Y-112281790D01*
X100307733Y-112079371D01*
X100303236Y-111829532D01*
X100300215Y-111526091D01*
X100297872Y-111162863D01*
X100295410Y-110733665D01*
X100293760Y-110413061D01*
X100292670Y-109980608D01*
X100293348Y-109616005D01*
X100295834Y-109316660D01*
X100300163Y-109079979D01*
X100306374Y-108903369D01*
X100314503Y-108784236D01*
X100324590Y-108719988D01*
X100377771Y-108603190D01*
X100479997Y-108459203D01*
X100605523Y-108329109D01*
X100732732Y-108238415D01*
X100769621Y-108220509D01*
X100849107Y-108192115D01*
X100935505Y-108179184D01*
X101037306Y-108183559D01*
X101163003Y-108207081D01*
X101321086Y-108251592D01*
X101520048Y-108318934D01*
X101768380Y-108410950D01*
X102074573Y-108529482D01*
X102117760Y-108546251D01*
X102278749Y-108603598D01*
X102411160Y-108637297D01*
X102544843Y-108653384D01*
X102709650Y-108657894D01*
X102725360Y-108657940D01*
X102882131Y-108655118D01*
X102989811Y-108643311D01*
X103069577Y-108618558D01*
X103142604Y-108576897D01*
X103247194Y-108481175D01*
X103363564Y-108304642D01*
X103463708Y-108069423D01*
X103544062Y-107782570D01*
X103546676Y-107770784D01*
X103558764Y-107713045D01*
X103569485Y-107653076D01*
X103578962Y-107586216D01*
X103587317Y-107507802D01*
X103594675Y-107413172D01*
X103601159Y-107297666D01*
X103606892Y-107156621D01*
X103611999Y-106985374D01*
X103616602Y-106779265D01*
X103620825Y-106533631D01*
X103624792Y-106243811D01*
X103628626Y-105905143D01*
X103632451Y-105512965D01*
X103636390Y-105062614D01*
X103640566Y-104549430D01*
X103645104Y-103968750D01*
X103646426Y-103790113D01*
X103649290Y-103352272D01*
X103652129Y-102851105D01*
X103654924Y-102292661D01*
X103657657Y-101682987D01*
X103660308Y-101028133D01*
X103662860Y-100334146D01*
X103665292Y-99607075D01*
X103667586Y-98852969D01*
X103669724Y-98077875D01*
X103671687Y-97287842D01*
X103673455Y-96488918D01*
X103675010Y-95687152D01*
X103676334Y-94888593D01*
X103677406Y-94099287D01*
X103678210Y-93325285D01*
X103678429Y-93089983D01*
X103679275Y-92379413D01*
X103680372Y-91687915D01*
X103681703Y-91019027D01*
X103683252Y-90376290D01*
X103685001Y-89763241D01*
X103686934Y-89183421D01*
X103689036Y-88640369D01*
X103691287Y-88137623D01*
X103693673Y-87678723D01*
X103696177Y-87267208D01*
X103698781Y-86906617D01*
X103701470Y-86600489D01*
X103704226Y-86352364D01*
X103707033Y-86165780D01*
X103709875Y-86044277D01*
X103712733Y-85991394D01*
X103769792Y-85815471D01*
X103883451Y-85673884D01*
X104058948Y-85564215D01*
X104065388Y-85561296D01*
X104098191Y-85548460D01*
X104138116Y-85537464D01*
X104190582Y-85528165D01*
X104261008Y-85520418D01*
X104354816Y-85514080D01*
X104477425Y-85509006D01*
X104634254Y-85505054D01*
X104830723Y-85502078D01*
X105072252Y-85499935D01*
X105364261Y-85498481D01*
X105712169Y-85497573D01*
X106121397Y-85497065D01*
X106597364Y-85496816D01*
X108991462Y-85496023D01*
X109134875Y-85609608D01*
X109172643Y-85641630D01*
X109280731Y-85751526D01*
X109365564Y-85861448D01*
X109452840Y-85999703D01*
X109455115Y-92431599D01*
X109455423Y-93074203D01*
X109456349Y-94156730D01*
X109457780Y-95169879D01*
X109459736Y-96115425D01*
X109462236Y-96995146D01*
X109465300Y-97810818D01*
X109468948Y-98564216D01*
X109473200Y-99257117D01*
X109478076Y-99891297D01*
X109483595Y-100468533D01*
X109489778Y-100990600D01*
X109496643Y-101459276D01*
X109504212Y-101876335D01*
X109512503Y-102243556D01*
X109521536Y-102562712D01*
X109531332Y-102835582D01*
X109541910Y-103063941D01*
X109553290Y-103249566D01*
X109565492Y-103394232D01*
X109578535Y-103499716D01*
X109612157Y-103705765D01*
X109752149Y-104405203D01*
X109923448Y-105043064D01*
X110127790Y-105622839D01*
X110366914Y-106148016D01*
X110642556Y-106622087D01*
X110956455Y-107048541D01*
X111310348Y-107430867D01*
X111705972Y-107772557D01*
X111855968Y-107885130D01*
X112177811Y-108101582D01*
X112506868Y-108285646D01*
X112856092Y-108442800D01*
X113238438Y-108578518D01*
X113666861Y-108698278D01*
X114154315Y-108807555D01*
X114702414Y-108918861D01*
X115911079Y-108901399D01*
X117119744Y-108883938D01*
X117642599Y-108751834D01*
X117799722Y-108710878D01*
X118165792Y-108602435D01*
X118491915Y-108483223D01*
X118801311Y-108344179D01*
X119117195Y-108176241D01*
X119243724Y-108101289D01*
X119673102Y-107793967D01*
X120060447Y-107429754D01*
X120404677Y-107010790D01*
X120704709Y-106539212D01*
X120959457Y-106017157D01*
X121167840Y-105446765D01*
X121328774Y-104830173D01*
X121441174Y-104169519D01*
X121503957Y-103466941D01*
X121505302Y-103435403D01*
X121508698Y-103308180D01*
X121512170Y-103113783D01*
X121515697Y-102855765D01*
X121519256Y-102537676D01*
X121522826Y-102163068D01*
X121526385Y-101735493D01*
X121529912Y-101258502D01*
X121533384Y-100735645D01*
X121536780Y-100170475D01*
X121540078Y-99566543D01*
X121543257Y-98927400D01*
X121546294Y-98256597D01*
X121549168Y-97557686D01*
X121551856Y-96834219D01*
X121554338Y-96089746D01*
X121556592Y-95327819D01*
X121558595Y-94551989D01*
X121559560Y-94157822D01*
X121561547Y-93397059D01*
X121563644Y-92655440D01*
X121565837Y-91936278D01*
X121568109Y-91242887D01*
X121570447Y-90578581D01*
X121572834Y-89946673D01*
X121575254Y-89350476D01*
X121577693Y-88793303D01*
X121580136Y-88278469D01*
X121582566Y-87809286D01*
X121584968Y-87389068D01*
X121587327Y-87021129D01*
X121589628Y-86708781D01*
X121591855Y-86455338D01*
X121593992Y-86264115D01*
X121596026Y-86138423D01*
X121597939Y-86081577D01*
X121610455Y-85986678D01*
X121671264Y-85805387D01*
X121782837Y-85668202D01*
X121952910Y-85563841D01*
X121958379Y-85561395D01*
X121991479Y-85548567D01*
X122031702Y-85537574D01*
X122084468Y-85528272D01*
X122155196Y-85520518D01*
X122249306Y-85514169D01*
X122372217Y-85509082D01*
X122529350Y-85505115D01*
X122726124Y-85502125D01*
X122967958Y-85499968D01*
X123260273Y-85498501D01*
X123608487Y-85497582D01*
X124018022Y-85497068D01*
X124494295Y-85496816D01*
X126889869Y-85496023D01*
X127047780Y-85625420D01*
G37*
G36*
X147537512Y-100096902D02*
G01*
X147536150Y-100589595D01*
X147532733Y-101071576D01*
X147527258Y-101534070D01*
X147519725Y-101968304D01*
X147510131Y-102365504D01*
X147498476Y-102716895D01*
X147484758Y-103013705D01*
X147468975Y-103247160D01*
X147454225Y-103419718D01*
X147357748Y-104461960D01*
X147252996Y-105445110D01*
X147138211Y-106380204D01*
X147011640Y-107278277D01*
X146871528Y-108150365D01*
X146716118Y-109007504D01*
X146543657Y-109860727D01*
X146352388Y-110721072D01*
X146140557Y-111599574D01*
X146006979Y-112122138D01*
X145571809Y-113678654D01*
X145088125Y-115201683D01*
X144551850Y-116702214D01*
X143958909Y-118191235D01*
X143305223Y-119679732D01*
X142586718Y-121178694D01*
X142084829Y-122158818D01*
X141242734Y-123694791D01*
X140357117Y-125179904D01*
X139423174Y-126621460D01*
X138436097Y-128026761D01*
X137391082Y-129403111D01*
X136283323Y-130757813D01*
X136191911Y-130865309D01*
X135366114Y-131804417D01*
X134488656Y-132748780D01*
X133574316Y-133683617D01*
X132637875Y-134594149D01*
X131694113Y-135465595D01*
X130757812Y-136283174D01*
X130588776Y-136425661D01*
X129181805Y-137560517D01*
X127730500Y-138642369D01*
X126238299Y-139669372D01*
X124708643Y-140639679D01*
X123144971Y-141551442D01*
X121550721Y-142402815D01*
X119929334Y-143191951D01*
X118284248Y-143917004D01*
X116618903Y-144576126D01*
X114936738Y-145167470D01*
X113241193Y-145689190D01*
X112700827Y-145840824D01*
X111419565Y-146176431D01*
X110157259Y-146471764D01*
X108901580Y-146728877D01*
X107640198Y-146949822D01*
X106360784Y-147136654D01*
X105051008Y-147291426D01*
X103698540Y-147416191D01*
X102291051Y-147513004D01*
X102018179Y-147525696D01*
X101648344Y-147536291D01*
X101219726Y-147542922D01*
X100739361Y-147545584D01*
X100214284Y-147544270D01*
X99651530Y-147538974D01*
X99058135Y-147529689D01*
X98441134Y-147516410D01*
X97425025Y-147479728D01*
X95664492Y-147360545D01*
X93900894Y-147171491D01*
X92138822Y-146913548D01*
X90382868Y-146587696D01*
X88637621Y-146194915D01*
X86907672Y-145736186D01*
X85197612Y-145212489D01*
X83512033Y-144624805D01*
X81855523Y-143974114D01*
X81362294Y-143765917D01*
X79666300Y-143000316D01*
X78008055Y-142173920D01*
X76388849Y-141287969D01*
X74809979Y-140343701D01*
X73272737Y-139342354D01*
X71778416Y-138285169D01*
X70328312Y-137173384D01*
X68923717Y-136008238D01*
X67565925Y-134790970D01*
X66256231Y-133522818D01*
X64995927Y-132205023D01*
X63786307Y-130838823D01*
X62628666Y-129425456D01*
X61524297Y-127966162D01*
X60474493Y-126462180D01*
X59480549Y-124914748D01*
X58543757Y-123325107D01*
X57665413Y-121694494D01*
X56846809Y-120024148D01*
X56476633Y-119211038D01*
X55771182Y-117536437D01*
X55134249Y-115843753D01*
X54565275Y-114130978D01*
X54063701Y-112396104D01*
X53628969Y-110637122D01*
X53260521Y-108852026D01*
X52957796Y-107038806D01*
X52720236Y-105195455D01*
X52693831Y-104952607D01*
X52634992Y-104377357D01*
X52585357Y-103832618D01*
X52544429Y-103306999D01*
X52511714Y-102789110D01*
X52486719Y-102267561D01*
X52468948Y-101730961D01*
X52457907Y-101167921D01*
X52453102Y-100567049D01*
X52453590Y-100228018D01*
X58366568Y-100228018D01*
X58368836Y-100667256D01*
X58373408Y-101086322D01*
X58380285Y-101472229D01*
X58389469Y-101811989D01*
X58400962Y-102092614D01*
X58422738Y-102482579D01*
X58563268Y-104218515D01*
X58773987Y-105939802D01*
X59054468Y-107644967D01*
X59404282Y-109332538D01*
X59823002Y-111001043D01*
X60310200Y-112649011D01*
X60865449Y-114274969D01*
X61488320Y-115877444D01*
X62178387Y-117454967D01*
X62935220Y-119006063D01*
X63758393Y-120529262D01*
X64117090Y-121148799D01*
X65023271Y-122612872D01*
X65987205Y-124035057D01*
X67007127Y-125413813D01*
X68081272Y-126747599D01*
X69207876Y-128034875D01*
X70385173Y-129274099D01*
X71611397Y-130463732D01*
X72884785Y-131602232D01*
X74203571Y-132688059D01*
X75565990Y-133719672D01*
X76970277Y-134695531D01*
X78414667Y-135614095D01*
X79897395Y-136473823D01*
X81416695Y-137273175D01*
X82970803Y-138010610D01*
X84557954Y-138684587D01*
X85308926Y-138976611D01*
X86901357Y-139540571D01*
X88515760Y-140038851D01*
X90147974Y-140470575D01*
X91793836Y-140834870D01*
X93449186Y-141130861D01*
X95109860Y-141357673D01*
X96771699Y-141514431D01*
X98430539Y-141600261D01*
X98799297Y-141610740D01*
X99445690Y-141625117D01*
X100041314Y-141632290D01*
X100599924Y-141632007D01*
X101135280Y-141624012D01*
X101661140Y-141608050D01*
X102191261Y-141583869D01*
X102739401Y-141551212D01*
X103319318Y-141509825D01*
X103976186Y-141454297D01*
X105672351Y-141260886D01*
X107358195Y-140996422D01*
X109031995Y-140661389D01*
X110692025Y-140256268D01*
X112336562Y-139781543D01*
X113963880Y-139237696D01*
X115572256Y-138625211D01*
X117159965Y-137944569D01*
X118725284Y-137196255D01*
X120031180Y-136509596D01*
X121526569Y-135648294D01*
X122983674Y-134726661D01*
X124400477Y-133746230D01*
X125774960Y-132708534D01*
X127105105Y-131615107D01*
X128388892Y-130467481D01*
X129624306Y-129267190D01*
X130809326Y-128015767D01*
X131725848Y-126972722D01*
X132819837Y-125631158D01*
X133854426Y-124250631D01*
X134828721Y-122832973D01*
X135741828Y-121380017D01*
X136592851Y-119893596D01*
X137380896Y-118375544D01*
X138105068Y-116827694D01*
X138764472Y-115251878D01*
X139358214Y-113649929D01*
X139885399Y-112023681D01*
X140345132Y-110374967D01*
X140736519Y-108705620D01*
X141058664Y-107017472D01*
X141130135Y-106583081D01*
X141214366Y-106031230D01*
X141290429Y-105480402D01*
X141360106Y-104915960D01*
X141425179Y-104323270D01*
X141487433Y-103687696D01*
X141548648Y-102994603D01*
X141554052Y-102926016D01*
X141569956Y-102667637D01*
X141584261Y-102350829D01*
X141596854Y-101985989D01*
X141607621Y-101583510D01*
X141616447Y-101153786D01*
X141623219Y-100707212D01*
X141627823Y-100254181D01*
X141630145Y-99805087D01*
X141630072Y-99370325D01*
X141627489Y-98960289D01*
X141622282Y-98585374D01*
X141614339Y-98255972D01*
X141603545Y-97982479D01*
X141499493Y-96451723D01*
X141315950Y-94718023D01*
X141063611Y-93005900D01*
X140742340Y-91314834D01*
X140352004Y-89644302D01*
X139892466Y-87993783D01*
X139363591Y-86362754D01*
X138765245Y-84750694D01*
X138097293Y-83157081D01*
X137359599Y-81581392D01*
X137140670Y-81143896D01*
X136327094Y-79620946D01*
X135452825Y-78136311D01*
X134519043Y-76691360D01*
X133526932Y-75287462D01*
X132477674Y-73925985D01*
X131372452Y-72608296D01*
X130212449Y-71335764D01*
X128998847Y-70109758D01*
X127732829Y-68931646D01*
X126415577Y-67802795D01*
X125048274Y-66724575D01*
X123632102Y-65698354D01*
X123580872Y-65662866D01*
X122691599Y-65068519D01*
X121748852Y-64476637D01*
X120769835Y-63897128D01*
X119771754Y-63339901D01*
X118771812Y-62814867D01*
X117787215Y-62331934D01*
X117165093Y-62044336D01*
X115571437Y-61362627D01*
X113955995Y-60749619D01*
X112319632Y-60205527D01*
X110663215Y-59730571D01*
X108987612Y-59324967D01*
X107293687Y-58988932D01*
X105582308Y-58722684D01*
X103854341Y-58526440D01*
X102110653Y-58400417D01*
X102003480Y-58395399D01*
X101710406Y-58385342D01*
X101363295Y-58377388D01*
X100974762Y-58371536D01*
X100557426Y-58367787D01*
X100123902Y-58366141D01*
X99686807Y-58366597D01*
X99258757Y-58369156D01*
X98852370Y-58373817D01*
X98480261Y-58380581D01*
X98155048Y-58389448D01*
X97889346Y-58400417D01*
X96923804Y-58461244D01*
X95193995Y-58624989D01*
X93482708Y-58858252D01*
X91788430Y-59161317D01*
X90109650Y-59534471D01*
X88444856Y-59977997D01*
X86792536Y-60492181D01*
X85489939Y-60951337D01*
X83890964Y-61583397D01*
X82321935Y-62280322D01*
X80784676Y-63040902D01*
X79281006Y-63863922D01*
X77812749Y-64748171D01*
X76381726Y-65692434D01*
X74989758Y-66695501D01*
X73638669Y-67756157D01*
X72330278Y-68873190D01*
X71066408Y-70045388D01*
X69848881Y-71271537D01*
X68679519Y-72550424D01*
X68403539Y-72868225D01*
X67303048Y-74203183D01*
X66262351Y-75577501D01*
X65282218Y-76989284D01*
X64363418Y-78436636D01*
X63506718Y-79917661D01*
X62712889Y-81430465D01*
X61982699Y-82973152D01*
X61316916Y-84543826D01*
X60716309Y-86140594D01*
X60181647Y-87761558D01*
X59713700Y-89404824D01*
X59313235Y-91068497D01*
X58981021Y-92750681D01*
X58717828Y-94449481D01*
X58524423Y-96163001D01*
X58401576Y-97889347D01*
X58401228Y-97896291D01*
X58389715Y-98183819D01*
X58380494Y-98529102D01*
X58373566Y-98919150D01*
X58368935Y-99340978D01*
X58366602Y-99781596D01*
X58366568Y-100228018D01*
X52453590Y-100228018D01*
X52454038Y-99916956D01*
X52460220Y-99206250D01*
X52461388Y-99107405D01*
X52467755Y-98637123D01*
X52475149Y-98224019D01*
X52484195Y-97855548D01*
X52495519Y-97519163D01*
X52509746Y-97202316D01*
X52527500Y-96892460D01*
X52549408Y-96577050D01*
X52576095Y-96243537D01*
X52608185Y-95879375D01*
X52646304Y-95472017D01*
X52736843Y-94604648D01*
X52981311Y-92763052D01*
X53294766Y-90942446D01*
X53677150Y-89143037D01*
X54128403Y-87365032D01*
X54648466Y-85608636D01*
X55237280Y-83874055D01*
X55894787Y-82161496D01*
X56620928Y-80471165D01*
X57415643Y-78803267D01*
X58131150Y-77423948D01*
X58939571Y-75979376D01*
X59786811Y-74580981D01*
X60678419Y-73220643D01*
X61619946Y-71890241D01*
X62616939Y-70581655D01*
X63674948Y-69286762D01*
X64799522Y-67997444D01*
X65074644Y-67697517D01*
X65426502Y-67326268D01*
X65816188Y-66925793D01*
X66234465Y-66505116D01*
X66672096Y-66073262D01*
X67119844Y-65639255D01*
X67568473Y-65212120D01*
X68008745Y-64800882D01*
X68431424Y-64414565D01*
X68827272Y-64062194D01*
X68870824Y-64024097D01*
X69783233Y-63252461D01*
X70753176Y-62479542D01*
X71767547Y-61714722D01*
X72813233Y-60967382D01*
X73877128Y-60246904D01*
X74946120Y-59562669D01*
X76007102Y-58924060D01*
X76222637Y-58799290D01*
X77843466Y-57904580D01*
X79476659Y-57080003D01*
X81124626Y-56324774D01*
X82789774Y-55638106D01*
X84474514Y-55019215D01*
X86181253Y-54467313D01*
X87912401Y-53981616D01*
X89670367Y-53561336D01*
X91457560Y-53205689D01*
X93276388Y-52913887D01*
X95129261Y-52685146D01*
X95207982Y-52676845D01*
X95587277Y-52637256D01*
X95925991Y-52603015D01*
X96232796Y-52573732D01*
X96516365Y-52549021D01*
X96785370Y-52528492D01*
X97048484Y-52511757D01*
X97314378Y-52498428D01*
X97591725Y-52488118D01*
X97889197Y-52480436D01*
X98215466Y-52474996D01*
X98579204Y-52471409D01*
X98989085Y-52469286D01*
X99453779Y-52468240D01*
X99981960Y-52467882D01*
X100129054Y-52467849D01*
X100608480Y-52467908D01*
X101026558Y-52468478D01*
X101391726Y-52469873D01*
X101712420Y-52472405D01*
X101997078Y-52476387D01*
X102254138Y-52482131D01*
X102492036Y-52489951D01*
X102719211Y-52500160D01*
X102944099Y-52513070D01*
X103175137Y-52528995D01*
X103420764Y-52548246D01*
X103689416Y-52571138D01*
X103989530Y-52597982D01*
X104329545Y-52629092D01*
X105095342Y-52705410D01*
X106941691Y-52939088D01*
X108764757Y-53240973D01*
X110565285Y-53611290D01*
X112344019Y-54050264D01*
X114101704Y-54558118D01*
X115839085Y-55135078D01*
X117556907Y-55781368D01*
X119255914Y-56497213D01*
X120936850Y-57282836D01*
X122600462Y-58138464D01*
X123192698Y-58463370D01*
X124492216Y-59218734D01*
X125788507Y-60029060D01*
X127067883Y-60885023D01*
X128316652Y-61777299D01*
X129521126Y-62696562D01*
X130667613Y-63633487D01*
X130912530Y-63842552D01*
X131814746Y-64639666D01*
X132718511Y-65479020D01*
X133610051Y-66346977D01*
X134475589Y-67229895D01*
X135301349Y-68114135D01*
X136073557Y-68986059D01*
X136912946Y-69990326D01*
X138017276Y-71404674D01*
X139068999Y-72862427D01*
X140066355Y-74360134D01*
X141007585Y-75894344D01*
X141890932Y-77461604D01*
X142714636Y-79058463D01*
X143476938Y-80681469D01*
X144176080Y-82327171D01*
X144810303Y-83992116D01*
X145377849Y-85672854D01*
X145876958Y-87365932D01*
X146305871Y-89067898D01*
X146536428Y-90116575D01*
X146742809Y-91161812D01*
X146926099Y-92212780D01*
X147088274Y-93282521D01*
X147231311Y-94384078D01*
X147357186Y-95530490D01*
X147467876Y-96734802D01*
X147474575Y-96822561D01*
X147489606Y-97085098D01*
X147502594Y-97407112D01*
X147513535Y-97779830D01*
X147522430Y-98194479D01*
X147529277Y-98642285D01*
X147534074Y-99114473D01*
X147536819Y-99602270D01*
X147537103Y-99805087D01*
X147537512Y-100096902D01*
G37*
%TD*%
%LPC*%
D15*
%TO.C,P2*%
X70512510Y-68819488D03*
X66285285Y-72761438D03*
D16*
X71885705Y-68195280D03*
D17*
X69041772Y-65145535D03*
D16*
X65566809Y-74087746D03*
D17*
X62722876Y-71038001D03*
%TD*%
D18*
%TO.C,BT1*%
X89450000Y-135380000D03*
D19*
X89450000Y-133380000D03*
%TD*%
D20*
%TO.C,J5*%
X100000000Y-92400000D03*
D21*
X101270000Y-92400000D03*
X100000000Y-91130000D03*
X101270000Y-91130000D03*
X100000000Y-89860000D03*
X101270000Y-89860000D03*
X100000000Y-88590000D03*
X101270000Y-88590000D03*
X100000000Y-87320000D03*
X101270000Y-87320000D03*
X100000000Y-86050000D03*
X101270000Y-86050000D03*
X100000000Y-84780000D03*
X101270000Y-84780000D03*
X100000000Y-83510000D03*
X101270000Y-83510000D03*
X100000000Y-82240000D03*
X101270000Y-82240000D03*
X100000000Y-80970000D03*
X101270000Y-80970000D03*
X100000000Y-79700000D03*
X101270000Y-79700000D03*
X100000000Y-78430000D03*
X101270000Y-78430000D03*
X100000000Y-77160000D03*
X101270000Y-77160000D03*
X100000000Y-75890000D03*
X101270000Y-75890000D03*
X100000000Y-74620000D03*
X101270000Y-74620000D03*
X100000000Y-73350000D03*
X101270000Y-73350000D03*
%TD*%
D22*
%TO.C,SW9*%
X84105045Y-142437132D03*
X90494955Y-144762868D03*
%TD*%
D23*
%TO.C,A1*%
X76933733Y-124266519D03*
X77828195Y-119056385D03*
%TD*%
D20*
%TO.C,J6*%
X97165000Y-93540000D03*
D21*
X95895000Y-93540000D03*
X94625000Y-93540000D03*
%TD*%
D15*
%TO.C,P1*%
X109489091Y-142103653D03*
X114920514Y-140126776D03*
D24*
X107981161Y-142141689D03*
D25*
X109407385Y-146060207D03*
D24*
X116100105Y-139186635D03*
D25*
X117526329Y-143105153D03*
%TD*%
D26*
%TO.C,J4*%
X129340000Y-120560000D03*
D27*
X131880000Y-120560000D03*
X129340000Y-118020000D03*
X131880000Y-118020000D03*
X129340000Y-115480000D03*
X131880000Y-115480000D03*
X129340000Y-112940000D03*
X131880000Y-112940000D03*
X129340000Y-110400000D03*
X131880000Y-110400000D03*
X129340000Y-107860000D03*
X131880000Y-107860000D03*
X129340000Y-105320000D03*
X131880000Y-105320000D03*
X129340000Y-102780000D03*
X131880000Y-102780000D03*
X129340000Y-100240000D03*
X131880000Y-100240000D03*
X129340000Y-97700000D03*
X131880000Y-97700000D03*
X129340000Y-95160000D03*
X131880000Y-95160000D03*
X129340000Y-92620000D03*
X131880000Y-92620000D03*
X129340000Y-90080000D03*
X131880000Y-90080000D03*
%TD*%
D28*
%TO.C,D5*%
X59703238Y-125153942D03*
X58053238Y-122296058D03*
X62296762Y-119846058D03*
X63946762Y-122703942D03*
%TD*%
D29*
%TO.C,D2*%
X74846058Y-59703238D03*
X77703942Y-58053238D03*
X80153942Y-62296762D03*
X77296058Y-63946762D03*
%TD*%
D30*
%TO.C,D12*%
X122296058Y-58053238D03*
X125153942Y-59703238D03*
X122703942Y-63946762D03*
X119846058Y-62296762D03*
%TD*%
D31*
%TO.C,D3*%
X58053238Y-77703942D03*
X59703238Y-74846058D03*
X63946762Y-77296058D03*
X62296762Y-80153942D03*
%TD*%
D32*
%TO.C,D8*%
X125153942Y-140296762D03*
X122296058Y-141946762D03*
X119846058Y-137703238D03*
X122703942Y-136053238D03*
%TD*%
D33*
%TO.C,BZ1*%
X106600000Y-130000000D03*
X93400000Y-130000000D03*
%TD*%
D34*
%TO.C,D1*%
X98350000Y-52550000D03*
X101650000Y-52550000D03*
X101650000Y-57450000D03*
X98350000Y-57450000D03*
%TD*%
D35*
%TO.C,D13*%
X118090000Y-109780000D03*
X118090000Y-113080000D03*
X113190000Y-113080000D03*
X113190000Y-109780000D03*
%TD*%
D36*
%TO.C,D9*%
X141946762Y-122296058D03*
X140296762Y-125153942D03*
X136053238Y-122703942D03*
X137703238Y-119846058D03*
%TD*%
D37*
%TO.C,SW6*%
X123000000Y-128125000D03*
X117000000Y-128125000D03*
X123000000Y-131875000D03*
X117000000Y-131875000D03*
%TD*%
D35*
%TO.C,D4*%
X52550000Y-101650000D03*
X52550000Y-98350000D03*
X57450000Y-98350000D03*
X57450000Y-101650000D03*
%TD*%
D37*
%TO.C,SW5*%
X83000000Y-128125000D03*
X77000000Y-128125000D03*
X83000000Y-131875000D03*
X77000000Y-131875000D03*
%TD*%
D34*
%TO.C,D7*%
X101650000Y-147450000D03*
X98350000Y-147450000D03*
X98350000Y-142550000D03*
X101650000Y-142550000D03*
%TD*%
D38*
%TO.C,D11*%
X140296762Y-74846058D03*
X141946762Y-77703942D03*
X137703238Y-80153942D03*
X136053238Y-77296058D03*
%TD*%
D39*
%TO.C,X1*%
X76530000Y-77960000D03*
D40*
X76530000Y-80500000D03*
D41*
X73990000Y-77960000D03*
X73990000Y-80500000D03*
D40*
X71450000Y-77960000D03*
X71450000Y-80500000D03*
%TD*%
D35*
%TO.C,D10*%
X147450000Y-98350000D03*
X147450000Y-101650000D03*
X142550000Y-101650000D03*
X142550000Y-98350000D03*
%TD*%
D42*
%TO.C,D6*%
X77703942Y-141946762D03*
X74846058Y-140296762D03*
X77296058Y-136053238D03*
X80153942Y-137703238D03*
%TD*%
D35*
%TO.C,D14*%
X85620000Y-85960000D03*
X85620000Y-89260000D03*
X80720000Y-89260000D03*
X80720000Y-85960000D03*
%TD*%
%LPD*%
M02*
