M48
; DRILL file {KiCad 7.0.3} date Thu 06 Jul 2023 04:10:13 PM CEST
; FORMAT={-:-/ absolute / inch / decimal}
; #@! TF.CreationDate,2023-07-06T16:10:13+02:00
; #@! TF.GenerationSoftware,Kicad,Pcbnew,7.0.3
; #@! TF.FileFunction,Plated,1,2,PTH
FMAT,2
INCH
; #@! TA.AperFunction,Plated,PTH,ComponentDrill
T1C0.0079
; #@! TA.AperFunction,Plated,PTH,ViaDrill
T2C0.0098
; #@! TA.AperFunction,Plated,PTH,ComponentDrill
T3C0.0236
; #@! TA.AperFunction,Plated,PTH,ComponentDrill
T4C0.0256
; #@! TA.AperFunction,Plated,PTH,ComponentDrill
T5C0.0276
; #@! TA.AperFunction,Plated,PTH,ComponentDrill
T6C0.0295
; #@! TA.AperFunction,Plated,PTH,ComponentDrill
T7C0.0394
; #@! TA.AperFunction,Plated,PTH,ComponentDrill
T8C0.0400
%
G90
G05
T1
X3.0289Y-4.8924
X3.0641Y-4.6873
T2
X2.07Y-3.9392
X2.26Y-4.195
X2.2628Y-3.938
X2.31Y-4.085
X2.3157Y-3.0051
X2.3199Y-4.874
X2.34Y-3.395
X2.34Y-4.415
X2.3476Y-4.148
X2.36Y-3.28
X2.37Y-4.195
X2.385Y-3.185
X2.42Y-4.665
X2.44Y-4.385
X2.475Y-3.345
X2.4833Y-3.1004
X2.4862Y-4.7766
X2.51Y-4.58
X2.525Y-4.905
X2.57Y-4.73
X2.6Y-4.875
X2.62Y-3.295
X2.66Y-2.955
X2.7125Y-4.2769
X2.72Y-5.065
X2.7575Y-4.2327
X2.7697Y-2.892
X2.78Y-3.235
X2.8Y-5.14
X2.8043Y-2.8574
X2.805Y-2.955
X2.855Y-5.02
X2.8846Y-4.615
X2.89Y-2.885
X2.89Y-5.23
X2.914Y-4.2407
X2.92Y-2.535
X2.9547Y-4.2244
X2.978Y-3.3571
X2.99Y-5.33
X3.0Y-2.3199
X3.0002Y-4.2028
X3.006Y-5.5573
X3.03Y-4.96
X3.035Y-3.515
X3.0815Y-3.6535
X3.0974Y-2.4862
X3.1014Y-5.3898
X3.126Y-3.3327
X3.135Y-3.79
X3.145Y-5.12
X3.155Y-4.905
X3.175Y-2.89
X3.1772Y-3.9154
X3.1972Y-3.3197
X3.2039Y-3.5917
X3.2197Y-4.0126
X3.27Y-4.855
X3.2701Y-3.3165
X3.276Y-4.1783
X3.2988Y-3.8134
X3.315Y-5.5
X3.32Y-2.395
X3.3232Y-3.8937
X3.3237Y-5.1359
X3.33Y-2.63
X3.3315Y-3.5736
X3.3413Y-4.3425
X3.3457Y-3.3248
X3.3622Y-5.2232
X3.3693Y-3.4425
X3.3772Y-2.4091
X3.4094Y-4.5157
X3.4161Y-3.5972
X3.4358Y-3.8118
X3.452Y-2.615
X3.4528Y-4.1969
X3.4594Y-2.3646
X3.4693Y-4.3457
X3.475Y-4.925
X3.4781Y-3.8247
X3.4854Y-3.6583
X3.4937Y-3.9122
X3.5055Y-4.3768
X3.5083Y-3.7937
X3.5102Y-3.8231
X3.5106Y-5.472
X3.5118Y-2.7638
X3.5165Y-4.826
X3.5169Y-4.661
X3.5169Y-4.7465
X3.5252Y-4.5524
X3.5271Y-4.3508
X3.5287Y-4.4819
X3.535Y-3.2079
X3.537Y-3.0173
X3.5382Y-3.2626
X3.5382Y-3.3272
X3.5425Y-5.1181
X3.5476Y-2.9559
X3.5516Y-4.9858
X3.5549Y-4.6144
X3.5626Y-4.5516
X3.565Y-4.478
X3.6035Y-4.55
X3.6067Y-4.5854
X3.6094Y-3.9094
X3.6094Y-4.4339
X3.6102Y-4.1827
X3.615Y-2.9445
X3.6201Y-4.9319
X3.6236Y-4.9945
X3.6299Y-5.4331
X3.6346Y-4.7677
X3.635Y-4.7366
X3.6413Y-4.5925
X3.6504Y-4.9327
X3.6535Y-3.6059
X3.6555Y-4.3386
X3.66Y-5.205
X3.6673Y-4.7713
X3.6681Y-4.8028
X3.6756Y-4.3838
X3.683Y-4.3553
X3.689Y-2.4866
X3.6898Y-2.437
X3.6917Y-2.537
X3.6925Y-2.587
X3.6933Y-4.5138
X3.6957Y-2.387
X3.6976Y-2.337
X3.6996Y-2.287
X3.7062Y-4.0862
X3.7142Y-3.9232
X3.7146Y-3.8484
X3.7162Y-3.7929
X3.7236Y-5.7728
X3.7279Y-4.1147
X3.7283Y-4.5138
X3.7417Y-2.2602
X3.7495Y-4.3744
X3.76Y-4.31
X3.7709Y-3.8583
X3.7727Y-2.2372
X3.7988Y-4.0016
X3.8098Y-3.9665
X3.8228Y-5.3858
X3.8356Y-4.7695
X3.8425Y-3.9291
X3.8508Y-4.8594
X3.8572Y-4.1355
X3.8693Y-4.178
X3.8697Y-4.0902
X3.885Y-4.5283
X3.8858Y-4.578
X3.8862Y-4.4776
X3.8886Y-3.8071
X3.8898Y-5.3858
X3.9053Y-4.3392
X3.9079Y-4.0362
X3.9134Y-3.8327
X3.9331Y-2.2858
X3.9331Y-2.3409
X3.9331Y-2.3961
X3.937Y-4.5276
X3.9378Y-4.5772
X3.9382Y-4.4768
X3.939Y-5.6122
X3.9402Y-5.805
X3.9449Y-5.5354
X3.9465Y-3.8437
X3.9563Y-4.7717
X3.9669Y-4.2343
X3.9835Y-4.8795
X3.9866Y-4.5276
X3.9874Y-4.5772
X3.9878Y-4.4768
X3.9898Y-2.3394
X3.9902Y-2.3945
X3.9961Y-4.1484
X4.0028Y-4.0829
X4.0035Y-5.2736
X4.0051Y-5.1382
X4.0205Y-3.8362
X4.0236Y-4.2016
X4.0461Y-4.0461
X4.0528Y-3.8618
X4.0531Y-3.9142
X4.0638Y-3.639
X4.0654Y-3.535
X4.07Y-5.665
X4.0705Y-4.0996
X4.0709Y-5.2378
X4.0827Y-5.4921
X4.1017Y-2.2987
X4.1024Y-3.3539
X4.12Y-5.595
X4.1205Y-5.1382
X4.122Y-4.4016
X4.1312Y-2.3001
X4.1323Y-3.4142
X4.1346Y-3.8071
X4.1496Y-3.5354
X4.15Y-5.33
X4.1567Y-3.8267
X4.1677Y-3.3579
X4.1681Y-4.6843
X4.1746Y-2.2872
X4.1756Y-4.7776
X4.1827Y-4.0874
X4.1902Y-2.337
X4.1941Y-2.387
X4.1965Y-2.4366
X4.1976Y-2.487
X4.1976Y-2.537
X4.2Y-5.63
X4.2004Y-2.637
X4.2012Y-2.587
X4.2157Y-4.8673
X4.2201Y-4.2929
X4.2276Y-4.6551
X4.2453Y-3.5398
X4.2638Y-3.4134
X4.2681Y-2.9972
X4.2701Y-2.8606
X4.2756Y-5.3819
X4.2776Y-4.8843
X4.2835Y-5.1961
X4.2843Y-5.1429
X4.285Y-5.1035
X4.2949Y-5.4917
X4.3016Y-4.2913
X4.3138Y-4.4819
X4.3197Y-3.7661
X4.3213Y-3.7217
X4.3224Y-3.4685
X4.3224Y-4.0094
X4.3228Y-3.6307
X4.3248Y-3.8496
X4.3276Y-3.9142
X4.3287Y-4.0724
X4.3323Y-5.3974
X4.3445Y-4.2516
X4.35Y-4.14
X4.354Y-5.42
X4.376Y-3.5555
X4.38Y-4.21
X4.3957Y-3.8847
X4.402Y-5.4087
X4.4051Y-4.7776
X4.4055Y-4.6543
X4.4083Y-3.5559
X4.4173Y-3.2392
X4.4252Y-3.8839
X4.4465Y-3.5559
X4.4547Y-3.8826
X4.4727Y-5.428
X4.4803Y-3.002
X4.4827Y-2.8508
X4.485Y-4.385
X4.4878Y-4.1941
X4.4921Y-4.2508
X4.5087Y-3.8488
X4.5098Y-3.8886
X4.515Y-5.25
X4.525Y-5.36
X4.5276Y-2.4409
X4.53Y-4.295
X4.5319Y-3.9268
X4.5386Y-3.8283
X4.55Y-3.405
X4.5551Y-2.4252
X4.5598Y-3.9559
X4.5744Y-3.8461
X4.59Y-2.73
X4.6012Y-3.9831
X4.6035Y-3.8744
X4.6181Y-4.2756
X4.6276Y-3.8453
X4.6421Y-3.9551
X4.6488Y-4.3646
X4.6634Y-3.8276
X4.6701Y-3.926
X4.6921Y-3.8878
X4.6933Y-3.848
X4.7274Y-5.1919
X4.7283Y-4.2047
X4.7323Y-4.2795
X4.7582Y-4.151
X4.7681Y-3.8941
X4.7697Y-3.748
X4.7697Y-3.815
X4.7705Y-3.4276
X4.7705Y-3.5063
X4.7717Y-3.6772
X4.7717Y-3.9764
X4.7717Y-4.7087
X4.7717Y-4.8504
X4.772Y-4.811
X4.7726Y-2.4833
X4.7728Y-4.7598
X4.7732Y-3.3622
X4.7736Y-4.0567
X4.7736Y-4.6563
X4.7766Y-5.3878
X4.7992Y-4.2795
X4.8071Y-4.8819
X4.8303Y-3.3496
X4.8622Y-4.8819
X4.868Y-2.3157
X4.874Y-3.4724
X4.874Y-5.5541
X4.875Y-5.295
X4.895Y-2.555
X4.9026Y-4.8835
X4.9043Y-3.3496
X4.9488Y-4.8858
X4.9665Y-3.3453
X4.9878Y-4.8799
X5.0197Y-4.8701
X5.0217Y-3.3622
X5.0276Y-4.7362
X5.0276Y-4.7943
X5.0315Y-4.8346
X5.0319Y-3.4319
X5.275Y-4.905
X5.3441Y-3.9213
X5.3441Y-3.9551
X5.3441Y-3.9917
X5.3445Y-4.0248
X5.3445Y-4.0587
X5.3445Y-4.0953
X5.3449Y-4.1319
X5.3449Y-4.1657
X5.3449Y-4.2024
X5.3453Y-3.5445
X5.3453Y-3.5783
X5.3453Y-3.615
X5.3457Y-3.648
X5.3457Y-3.6819
X5.3457Y-3.7185
X5.3461Y-3.7551
X5.3461Y-3.789
X5.3461Y-3.8256
X5.35Y-2.97
X5.3878Y-3.0974
X5.3907Y-4.7726
X5.465Y-3.25
X5.5Y-3.82
X5.55Y-3.515
X5.5541Y-3.0
X5.5583Y-4.868
X5.6122Y-3.935
X5.645Y-3.815
X5.805Y-3.9338
T4
X3.7254Y-3.6827
X3.7754Y-3.6827
X3.8254Y-3.6827
T5
X3.937Y-2.8878
X3.937Y-2.9378
X3.937Y-2.9878
X3.937Y-3.0378
X3.937Y-3.0878
X3.937Y-3.1378
X3.937Y-3.1878
X3.937Y-3.2378
X3.937Y-3.2878
X3.937Y-3.3378
X3.937Y-3.3878
X3.937Y-3.4378
X3.937Y-3.4878
X3.937Y-3.5378
X3.937Y-3.5878
X3.937Y-3.6378
X3.987Y-2.8878
X3.987Y-2.9378
X3.987Y-2.9878
X3.987Y-3.0378
X3.987Y-3.0878
X3.987Y-3.1378
X3.987Y-3.1878
X3.987Y-3.2378
X3.987Y-3.2878
X3.987Y-3.3378
X3.987Y-3.3878
X3.987Y-3.4378
X3.987Y-3.4878
X3.987Y-3.5378
X3.987Y-3.5878
X3.987Y-3.6378
T6
X3.5157Y-5.248
X3.5157Y-5.3268
T7
X5.0921Y-3.5465
X5.0921Y-3.6465
X5.0921Y-3.7465
X5.0921Y-3.8465
X5.0921Y-3.9465
X5.0921Y-4.0465
X5.0921Y-4.1465
X5.0921Y-4.2465
X5.0921Y-4.3465
X5.0921Y-4.4465
X5.0921Y-4.5465
X5.0921Y-4.6465
X5.0921Y-4.7465
X5.1921Y-3.5465
X5.1921Y-3.6465
X5.1921Y-3.7465
X5.1921Y-3.8465
X5.1921Y-3.9465
X5.1921Y-4.0465
X5.1921Y-4.1465
X5.1921Y-4.2465
X5.1921Y-4.3465
X5.1921Y-4.4465
X5.1921Y-4.5465
X5.1921Y-4.6465
X5.1921Y-4.7465
T8
X2.813Y-3.0693
X2.813Y-3.1693
X2.913Y-3.0693
X2.913Y-3.1693
X3.013Y-3.0693
X3.013Y-3.1693
T3
G00X2.4587Y-2.7853
M15
G01X2.4801Y-2.8083
M16
G05
G00X2.5666Y-2.901
M15
G01X2.5961Y-2.9327
M16
G05
G00X2.7074Y-2.5533
M15
G01X2.7289Y-2.5763
M16
G05
G00X2.8154Y-2.669
M15
G01X2.8449Y-2.7007
M16
G05
G00X4.2586Y-5.6165
M15
G01X4.2438Y-5.5758
M16
G05
G00X4.3128Y-5.7652
M15
G01X4.302Y-5.7356
M16
G05
G00X4.5783Y-5.5001
M15
G01X4.5635Y-5.4594
M16
G05
G00X4.6324Y-5.6489
M15
G01X4.6216Y-5.6193
M16
G05
T0
M30
